<svg width="27" height="27" viewBox="0 0 27 27" fill="none" xmlns="http://www.w3.org/2000/svg">
<path d="M5.29309 0.5C2.63793 0.5 0.5 2.63793 0.5 5.29309V21.9569C0.5 24.6121 2.63793 26.75 5.29309 26.75H14.3247V16.4879H11.6112V12.7932H14.3247V9.63666C14.3247 7.15669 15.9281 4.87966 19.6215 4.87966C21.1169 4.87966 22.2227 5.02322 22.2227 5.02322L22.1358 8.47347C22.1358 8.47347 21.008 8.46281 19.7773 8.46281C18.4454 8.46281 18.2319 9.07648 18.2319 10.0952V12.7932H22.2416L22.0668 16.4879H18.2319V26.7501H21.9569C24.6121 26.7501 26.75 24.6121 26.75 21.957V5.29312C26.75 2.63796 24.6121 0.500026 21.9569 0.500026H5.29307L5.29309 0.5Z" fill="#EDEBEB" fill-opacity="0.85"/>
</svg>
