<svg width="27" height="27" viewBox="0 0 27 27" fill="none" xmlns="http://www.w3.org/2000/svg">
<path d="M13.625 10.4996C13.0069 10.4998 12.4028 10.6833 11.8889 11.0269C11.3751 11.3705 10.9747 11.8587 10.7384 12.4298C10.502 13.0009 10.4403 13.6293 10.561 14.2355C10.6817 14.8416 10.9795 15.3984 11.4166 15.8354C11.8537 16.2724 12.4106 16.5699 13.0169 16.6904C13.6231 16.8109 14.2515 16.749 14.8225 16.5124C15.3935 16.2758 15.8816 15.8752 16.2249 15.3613C16.5683 14.8473 16.7516 14.2431 16.7516 13.625C16.7509 12.7961 16.4213 12.0013 15.8351 11.4153C15.2488 10.8293 14.4539 10.4999 13.625 10.4996ZM20.9322 8.09727C20.7731 7.69405 20.5329 7.32783 20.2263 7.02131C19.9198 6.7148 19.5536 6.47454 19.1504 6.31543C17.9199 5.82969 14.9902 5.93867 13.625 5.93867C12.2598 5.93867 9.33301 5.82559 8.09903 6.31543C7.69581 6.47454 7.32958 6.7148 7.02307 7.02131C6.71656 7.32783 6.4763 7.69405 6.31719 8.09727C5.83203 9.32774 5.94043 12.2604 5.94043 13.6244C5.94043 14.9885 5.83203 17.9176 6.31953 19.1522C6.47864 19.5554 6.7189 19.9216 7.02541 20.2281C7.33193 20.5346 7.69815 20.7749 8.10137 20.934C9.33184 21.4197 12.2615 21.3107 13.6273 21.3107C14.9932 21.3107 17.9188 21.4238 19.1527 20.934C19.556 20.7749 19.9222 20.5346 20.2287 20.2281C20.5352 19.9216 20.7755 19.5554 20.9346 19.1522C21.4238 17.9217 21.3113 14.9891 21.3113 13.625C21.3113 12.2609 21.4238 9.33242 20.9346 8.09785L20.9322 8.09727ZM13.625 18.4297C12.6747 18.4297 11.7458 18.1479 10.9557 17.62C10.1655 17.092 9.5497 16.3416 9.18605 15.4637C8.82239 14.5857 8.72725 13.6197 8.91263 12.6877C9.09802 11.7556 9.55563 10.8995 10.2276 10.2276C10.8995 9.55563 11.7556 9.09802 12.6877 8.91263C13.6197 8.72725 14.5857 8.82239 15.4637 9.18605C16.3416 9.5497 17.092 10.1655 17.62 10.9557C18.1479 11.7458 18.4297 12.6747 18.4297 13.625C18.4305 14.2562 18.3067 14.8813 18.0655 15.4646C17.8243 16.0479 17.4705 16.5778 17.0242 17.0242C16.5778 17.4705 16.0479 17.8243 15.4646 18.0655C14.8813 18.3067 14.2562 18.4305 13.625 18.4297ZM18.6277 9.74024C18.4059 9.74035 18.189 9.67468 18.0045 9.55152C17.82 9.42836 17.6762 9.25325 17.5912 9.04833C17.5062 8.84342 17.4839 8.61791 17.5271 8.40032C17.5704 8.18273 17.6771 7.98285 17.8339 7.82595C17.9908 7.66905 18.1906 7.56218 18.4081 7.51886C18.6257 7.47554 18.8512 7.49771 19.0562 7.58258C19.2611 7.66744 19.4363 7.81119 19.5596 7.99563C19.6828 8.18007 19.7486 8.39692 19.7486 8.61875C19.7493 8.76606 19.7208 8.91205 19.6649 9.04833C19.6089 9.18462 19.5266 9.30852 19.4227 9.41293C19.3188 9.51734 19.1953 9.60021 19.0593 9.65678C18.9232 9.71334 18.7774 9.7425 18.6301 9.74258L18.6277 9.74024ZM23.9375 0.5H3.3125C2.56658 0.5 1.85121 0.796316 1.32376 1.32376C0.796316 1.85121 0.5 2.56658 0.5 3.3125L0.5 23.9375C0.5 24.6834 0.796316 25.3988 1.32376 25.9262C1.85121 26.4537 2.56658 26.75 3.3125 26.75H23.9375C24.6834 26.75 25.3988 26.4537 25.9262 25.9262C26.4537 25.3988 26.75 24.6834 26.75 23.9375V3.3125C26.75 2.56658 26.4537 1.85121 25.9262 1.32376C25.3988 0.796316 24.6834 0.5 23.9375 0.5ZM22.9344 17.4922C22.8588 18.9939 22.516 20.3246 21.4197 21.418C20.3234 22.5113 18.9939 22.8611 17.4939 22.9326C15.9465 23.0199 11.307 23.0199 9.75957 22.9326C8.25781 22.857 6.93184 22.5137 5.83379 21.418C4.73574 20.3223 4.39063 18.991 4.31914 17.4922C4.23184 15.9441 4.23184 11.3041 4.31914 9.75781C4.39473 8.25606 4.7334 6.92539 5.83379 5.83203C6.93418 4.73867 8.26367 4.39297 9.75957 4.32149C11.307 4.23418 15.9465 4.23418 17.4939 4.32149C18.9957 4.39707 20.3258 4.74043 21.4197 5.83613C22.5137 6.93184 22.8629 8.26309 22.9344 9.76484C23.0217 11.307 23.0217 15.943 22.9344 17.4922Z" fill="#EDEBEB" fill-opacity="0.85"/>
</svg>
