<svg width="27" height="27" viewBox="0 0 27 27" fill="none" xmlns="http://www.w3.org/2000/svg">
<path fill-rule="evenodd" clip-rule="evenodd" d="M3.24617e-07 2.69307C3.24617e-07 2.11143 0.231055 1.55362 0.642335 1.14234C1.05362 0.731058 1.61143 0.500003 2.19307 0.500003H24.0545C24.3428 0.499532 24.6283 0.555919 24.8947 0.665935C25.1611 0.775951 25.4032 0.937435 25.6072 1.14114C25.8111 1.34485 25.9729 1.58678 26.0832 1.85308C26.1935 2.11939 26.2502 2.40483 26.25 2.69307V24.5546C26.2503 24.8428 26.1938 25.1284 26.0836 25.3948C25.9735 25.6612 25.8119 25.9033 25.6081 26.1073C25.4043 26.3112 25.1623 26.4729 24.8959 26.5832C24.6295 26.6935 24.344 26.7502 24.0557 26.75H2.19307C1.90497 26.75 1.6197 26.6932 1.35354 26.583C1.08739 26.4727 0.845574 26.311 0.641913 26.1073C0.438252 25.9035 0.276737 25.6616 0.166595 25.3954C0.0564533 25.1291 -0.000156421 24.8438 3.24617e-07 24.5557V2.69307ZM10.3902 10.5084H13.9447V12.2934C14.4578 11.2673 15.7703 10.3438 17.7426 10.3438C21.5238 10.3438 22.4199 12.3877 22.4199 16.1378V23.0846H18.5934V16.9922C18.5934 14.8564 18.0803 13.6513 16.7773 13.6513C14.9697 13.6513 14.218 14.9506 14.218 16.9922V23.0846H10.3902V10.5084ZM3.82773 22.9211H7.65546V10.3438H3.82773V22.9199V22.9211ZM8.20313 6.24159C8.21034 6.56933 8.15203 6.8952 8.03159 7.2001C7.91116 7.50499 7.73105 7.78275 7.50181 8.01709C7.27258 8.25142 6.99885 8.43761 6.69668 8.56473C6.39452 8.69184 6.07 8.75732 5.74219 8.75732C5.41437 8.75732 5.08986 8.69184 4.7877 8.56473C4.48553 8.43761 4.2118 8.25142 3.98257 8.01709C3.75333 7.78275 3.57321 7.50499 3.45278 7.2001C3.33235 6.8952 3.27403 6.56933 3.28125 6.24159C3.29542 5.5983 3.56091 4.98612 4.02089 4.53616C4.48086 4.08621 5.09873 3.83425 5.74219 3.83425C6.38564 3.83425 7.00352 4.08621 7.46349 4.53616C7.92346 4.98612 8.18896 5.5983 8.20313 6.24159Z" fill="#EDEBEB" fill-opacity="0.85"/>
</svg>
