<svg width="27" height="27" viewBox="0 0 27 27" fill="none" xmlns="http://www.w3.org/2000/svg">
<path d="M24.1875 0.5H3.5625C2.00977 0.5 0.75 1.75977 0.75 3.3125V23.9375C0.75 25.4902 2.00977 26.75 3.5625 26.75H24.1875C25.7402 26.75 27 25.4902 27 23.9375V3.3125C27 1.75977 25.7402 0.5 24.1875 0.5ZM21.3223 9.80469C21.334 9.96875 21.334 10.1387 21.334 10.3027C21.334 15.3828 17.4668 21.2363 10.4004 21.2363C8.2207 21.2363 6.19922 20.6035 4.5 19.5137C4.81055 19.5488 5.10938 19.5606 5.42578 19.5606C7.22461 19.5606 8.87695 18.9512 10.1953 17.9199C8.50781 17.8848 7.08985 16.7773 6.60352 15.2539C7.19531 15.3418 7.72852 15.3418 8.33789 15.1836C6.58008 14.8262 5.26172 13.2793 5.26172 11.4102V11.3633C5.77149 11.6504 6.36914 11.8262 6.99609 11.8496C6.469 11.499 6.0369 11.0234 5.73836 10.4651C5.43982 9.9069 5.28412 9.28344 5.28516 8.65039C5.28516 7.93555 5.47266 7.2793 5.80664 6.71094C7.69922 9.04297 10.541 10.5664 13.7285 10.7305C13.1836 8.12305 15.1348 6.00781 17.4785 6.00781C18.5859 6.00781 19.582 6.4707 20.2852 7.2207C21.1523 7.05664 21.9844 6.73438 22.7227 6.29492C22.4356 7.18555 21.832 7.93555 21.0352 8.41016C21.8086 8.32813 22.5586 8.11133 23.25 7.8125C22.7285 8.58008 22.0723 9.25977 21.3223 9.80469Z" fill="#EDEBEB" fill-opacity="0.85"/>
</svg>
