<svg width="5" height="6" viewBox="0 0 5 6" fill="none" xmlns="http://www.w3.org/2000/svg">
<path d="M2.72215 5.27743C2.83326 5.27743 2.94437 5.27743 3.05548 5.22188V4.88854C3.05548 4.61077 3.05548 4.33299 3.11104 4.11077C2.99993 4.16632 2.83326 4.16632 2.72215 4.16632C1.99993 4.16632 1.38881 3.55521 1.38881 2.83299C1.38881 2.11077 1.99993 1.49965 2.72215 1.49965C3.2777 1.49965 3.7777 1.83299 3.99993 2.33299C4.22215 2.05521 4.55548 1.77743 4.83326 1.55521C4.11104 0.388544 2.61104 -0.000345349 1.44437 0.721877C0.277704 1.4441 -0.111185 2.9441 0.611037 4.11077C1.05548 4.83299 1.83326 5.27743 2.72215 5.27743Z" fill="white" fill-opacity="0.7"/>
</svg>
