<svg width="28" height="28" viewBox="0 0 28 28" fill="none" xmlns="http://www.w3.org/2000/svg">
<path d="M14 0C11.2311 0 8.52431 0.821086 6.22202 2.35943C3.91973 3.89776 2.12532 6.08427 1.06569 8.64243C0.00606598 11.2006 -0.271181 14.0155 0.269012 16.7313C0.809205 19.447 2.14258 21.9416 4.10051 23.8995C6.05845 25.8574 8.55301 27.1908 11.2687 27.731C13.9845 28.2712 16.7994 27.9939 19.3576 26.9343C21.9157 25.8747 24.1022 24.0803 25.6406 21.778C27.1789 19.4757 28 16.7689 28 14C27.9929 10.2892 26.5156 6.73233 23.8916 4.10836C21.2677 1.4844 17.7108 0.00711573 14 0ZM19.075 17.5404C19.2772 17.7446 19.3907 18.0203 19.3907 18.3077C19.3907 18.5951 19.2772 18.8708 19.075 19.075C18.8692 19.274 18.594 19.3853 18.3077 19.3853C18.0214 19.3853 17.7462 19.274 17.5404 19.075L14 15.5212L10.4596 19.075C10.2538 19.274 9.97865 19.3853 9.69231 19.3853C9.40598 19.3853 9.13085 19.274 8.925 19.075C8.72278 18.8708 8.60933 18.5951 8.60933 18.3077C8.60933 18.0203 8.72278 17.7446 8.925 17.5404L12.4788 14L8.925 10.4596C8.75328 10.2504 8.66551 9.98473 8.67879 9.71437C8.69207 9.44401 8.80544 9.18825 8.99685 8.99684C9.18825 8.80543 9.44401 8.69207 9.71438 8.67879C9.98474 8.66551 10.2504 8.75327 10.4596 8.925L14 12.4788L17.5404 8.925C17.7496 8.75327 18.0153 8.66551 18.2856 8.67879C18.556 8.69207 18.8118 8.80543 19.0032 8.99684C19.1946 9.18825 19.3079 9.44401 19.3212 9.71437C19.3345 9.98473 19.2467 10.2504 19.075 10.4596L15.5212 14L19.075 17.5404Z" fill="#FED453"/>
</svg>
