<svg width="18" height="18" viewBox="0 0 18 18" fill="none" xmlns="http://www.w3.org/2000/svg">
<path d="M5.14286 0C7.50857 0 9.42857 1.92 9.42857 4.28571C9.42857 6.65143 7.50857 8.57143 5.14286 8.57143C2.77714 8.57143 0.857143 6.65143 0.857143 4.28571C0.857143 1.92 2.77714 0 5.14286 0ZM5.14286 6.85714C6.56571 6.85714 7.71429 5.70857 7.71429 4.28571C7.71429 2.86286 6.56571 1.71429 5.14286 1.71429C3.72 1.71429 2.57143 2.86286 2.57143 4.28571C2.57143 5.70857 3.72 6.85714 5.14286 6.85714ZM2.57143 12H4.28571C4.28571 10.9714 4.92857 10.0457 5.88857 9.68571L11.1686 7.71429H18V17.1429H12.8571V15.9086L6.85714 17.5714L-1.78814e-07 15.4286V14.5714C-1.78814e-07 13.1486 1.14857 12 2.57143 12ZM14.5714 15.4286H16.2857V9.42857H14.5714V15.4286ZM6.88286 15.78L12.8571 14.1429V9.42857H11.4771L6.48857 11.2886C6.19714 11.4 6 11.6829 6 12C6 12 7.71429 11.9571 7.97143 11.8714L10.0114 11.1943L10.5514 12.8229L8.51143 13.5C8.07429 13.6457 7.62 13.7143 7.15714 13.7143H2.57143C2.23714 13.7143 1.93714 13.92 1.8 14.2029L6.88286 15.78V15.78Z" fill="white" fill-opacity="0.7"/>
</svg>
