<svg width="18" height="18" viewBox="0 0 18 18" fill="none" xmlns="http://www.w3.org/2000/svg">
<path d="M17.25 7.03125V16.5938C17.25 16.6932 17.2105 16.7886 17.1402 16.8589C17.0698 16.9292 16.9745 16.9688 16.875 16.9688H12.375C12.2755 16.9688 12.1802 16.9292 12.1098 16.8589C12.0395 16.7886 12 16.6932 12 16.5938V13.2188C12 12.7215 11.8025 12.2446 11.4508 11.8929C11.0992 11.5413 10.6223 11.3438 10.125 11.3438H7.875C7.37772 11.3438 6.90081 11.5413 6.54917 11.8929C6.19754 12.2446 6 12.7215 6 13.2188V16.5938C6 16.6932 5.96049 16.7886 5.89017 16.8589C5.81984 16.9292 5.72446 16.9688 5.625 16.9688H1.125C1.02554 16.9688 0.930161 16.9292 0.859834 16.8589C0.78951 16.7886 0.75 16.6932 0.75 16.5938V7.03125C0.75 6.97303 0.763554 6.91562 0.78959 6.86355C0.815626 6.81147 0.853428 6.76618 0.899999 6.73125L0.476471 6.16654L0.9 6.73125L8.775 0.825L8.3323 0.23473L8.775 0.824999C8.83991 0.776317 8.91886 0.75 9 0.75C9.08114 0.75 9.16009 0.776317 9.225 0.824999L9.67144 0.229749L9.225 0.825L17.1 6.73125C17.1466 6.76618 17.1844 6.81147 17.2104 6.86354C17.2364 6.91562 17.25 6.97304 17.25 7.03125Z" stroke="white" stroke-opacity="0.7" stroke-width="1.5" stroke-linecap="round" stroke-linejoin="round"/>
</svg>
