<svg width="18" height="14" viewBox="0 0 18 14" fill="none" xmlns="http://www.w3.org/2000/svg">
<path d="M11.4545 0C10.5866 0 9.75413 0.344804 9.14038 0.958559C8.52662 1.57231 8.18182 2.40475 8.18182 3.27273C8.18182 4.14071 8.52662 4.97314 9.14038 5.58689C9.75413 6.20065 10.5866 6.54545 11.4545 6.54545C12.3225 6.54545 13.155 6.20065 13.7687 5.58689C14.3825 4.97314 14.7273 4.14071 14.7273 3.27273C14.7273 2.40475 14.3825 1.57231 13.7687 0.958559C13.155 0.344804 12.3225 0 11.4545 0ZM11.4545 1.55455C11.6802 1.55455 11.9036 1.59899 12.1121 1.68533C12.3205 1.77168 12.5099 1.89824 12.6695 2.05779C12.829 2.21734 12.9556 2.40675 13.0419 2.61521C13.1283 2.82367 13.1727 3.04709 13.1727 3.27273C13.1727 3.49836 13.1283 3.72179 13.0419 3.93025C12.9556 4.13871 12.829 4.32812 12.6695 4.48767C12.5099 4.64721 12.3205 4.77377 12.1121 4.86012C11.9036 4.94647 11.6802 4.99091 11.4545 4.99091C11.2289 4.99091 11.0055 4.94647 10.797 4.86012C10.5886 4.77377 10.3992 4.64721 10.2396 4.48767C10.0801 4.32812 9.9535 4.13871 9.86715 3.93025C9.78081 3.72179 9.73636 3.49836 9.73636 3.27273C9.73636 2.81704 9.91739 2.38001 10.2396 2.05779C10.5618 1.73557 10.9989 1.55455 11.4545 1.55455ZM2.45455 2.45455V4.90909H0V6.54545H2.45455V9H4.09091V6.54545H6.54545V4.90909H4.09091V2.45455H2.45455ZM11.4545 7.36364C9.27 7.36364 4.90909 8.45182 4.90909 10.6364V13.0909H18V10.6364C18 8.45182 13.6391 7.36364 11.4545 7.36364ZM11.4545 8.91818C13.8845 8.91818 16.4455 10.1127 16.4455 10.6364V11.5364H6.46364V10.6364C6.46364 10.1127 9 8.91818 11.4545 8.91818Z" fill="white" fill-opacity="0.7"/>
</svg>
