<svg width="19" height="19" viewBox="0 0 19 19" fill="none" xmlns="http://www.w3.org/2000/svg">
<path d="M2.88867 18H14.222C15.2239 18 16.1848 17.602 16.8933 16.8935C17.6018 16.185 17.9998 15.2242 17.9998 14.2222V2.88889C17.9998 2.38792 17.8008 1.90748 17.4465 1.55324C17.0923 1.19901 16.6119 1 16.1109 1H6.66645C6.16549 1 5.68504 1.19901 5.3308 1.55324C4.97657 1.90748 4.77756 2.38792 4.77756 2.88889V15.1667C4.77756 16.7316 4.45362 18 2.88867 18Z" stroke="white" stroke-opacity="0.7" stroke-width="1.5" stroke-linecap="round" stroke-linejoin="round"/>
<path d="M1 7.61155C1 7.11058 1.19901 6.63013 1.55324 6.2759C1.90748 5.92166 2.38792 5.72266 2.88889 5.72266H4.77778V15.6393C4.77778 16.9427 4.19222 18.0004 2.88889 18.0004C1.58556 18.0004 1 16.9427 1 15.6393V7.61155Z" stroke="white" stroke-opacity="0.7" stroke-width="1.5" stroke-linecap="round" stroke-linejoin="round"/>
<path d="M9.50011 6.66623C10.0217 6.66623 10.4446 6.24339 10.4446 5.72179C10.4446 5.20019 10.0217 4.77734 9.50011 4.77734C8.97851 4.77734 8.55566 5.20019 8.55566 5.72179C8.55566 6.24339 8.97851 6.66623 9.50011 6.66623Z" stroke="white" stroke-opacity="0.7" stroke-width="1.5" stroke-linecap="round"/>
<path d="M8.55566 11.3887H14.2223M8.55566 14.222H11.389" stroke="white" stroke-opacity="0.7" stroke-width="1.5" stroke-linecap="round"/>
</svg>
