<svg width="18" height="18" viewBox="0 0 18 18" fill="none" xmlns="http://www.w3.org/2000/svg">
<path d="M16.0714 12.8571V9.64286C16.0711 9.30197 15.9355 8.97514 15.6945 8.7341C15.4534 8.49305 15.1266 8.35748 14.7857 8.35714H9.64286V5.14286H11.5714C11.9123 5.14252 12.2391 5.00695 12.4802 4.7659C12.7212 4.52486 12.8568 4.19803 12.8571 3.85714V1.28571C12.8568 0.944826 12.7212 0.617997 12.4802 0.376953C12.2391 0.135908 11.9123 0.000340378 11.5714 0H6.42857C6.08768 0.000340378 5.76085 0.135908 5.51981 0.376953C5.27877 0.617997 5.1432 0.944826 5.14286 1.28571V3.85714C5.1432 4.19803 5.27877 4.52486 5.51981 4.7659C5.76085 5.00695 6.08768 5.14252 6.42857 5.14286H8.35714V8.35714H3.21429C2.8734 8.35748 2.54657 8.49305 2.30552 8.7341C2.06448 8.97514 1.92891 9.30197 1.92857 9.64286V12.8571H0V18H5.14286V12.8571H3.21429V9.64286H8.35714V12.8571H6.42857V18H11.5714V12.8571H9.64286V9.64286H14.7857V12.8571H12.8571V18H18V12.8571H16.0714ZM6.42857 1.28571H11.5714V3.85714H6.42857V1.28571ZM3.85714 16.7143H1.28571V14.1429H3.85714V16.7143ZM10.2857 16.7143H7.71429V14.1429H10.2857V16.7143ZM16.7143 16.7143H14.1429V14.1429H16.7143V16.7143Z" fill="white" fill-opacity="0.7"/>
</svg>
