<svg width="18" height="17" viewBox="0 0 18 17" fill="none" xmlns="http://www.w3.org/2000/svg">
<path d="M16.362 9.19707V14.7258H17.1801V16.362H0.818099V14.7258H1.6362V9.19707C1.13255 8.8609 0.719692 8.40559 0.434263 7.87155C0.148834 7.33752 -0.000333566 6.74127 5.60081e-07 6.13574C5.60081e-07 5.45917 0.183255 4.80715 0.517857 4.25166L2.73654 0.409049C2.80834 0.284686 2.91161 0.181413 3.03598 0.10961C3.16034 0.0378067 3.30141 3.64808e-06 3.44501 0H14.554C14.6976 3.64808e-06 14.8387 0.0378067 14.963 0.10961C15.0874 0.181413 15.1907 0.284686 15.2625 0.409049L17.473 4.23939C17.961 5.05002 18.1179 6.01755 17.911 6.94087C17.7041 7.86418 17.1493 8.67224 16.362 9.19707ZM14.7258 9.79428C14.1633 9.85738 13.5938 9.78981 13.0617 9.59683C12.5296 9.40385 12.0492 9.09067 11.6579 8.68167C11.3145 9.04087 10.9018 9.32675 10.4448 9.52206C9.98787 9.71736 9.49605 9.81804 8.99909 9.81801C8.50224 9.81825 8.0105 9.71783 7.55353 9.52281C7.09656 9.32779 6.68384 9.04221 6.34027 8.6833C5.94891 9.09216 5.46848 9.40519 4.93637 9.59803C4.40426 9.79086 3.83483 9.8583 3.2724 9.7951V14.7258H14.7258V9.7951V9.79428ZM3.91788 1.6362L1.92744 5.08285C1.73402 5.56074 1.72822 6.09404 1.91119 6.57603C2.09416 7.05801 2.4524 7.45312 2.91422 7.68227C3.37604 7.91142 3.90736 7.95771 4.40185 7.81188C4.89634 7.66604 5.31751 7.33884 5.58107 6.89576C5.85513 6.21101 6.82458 6.21101 7.09946 6.89576C7.25105 7.27569 7.51309 7.60145 7.85173 7.83093C8.19036 8.06041 8.59002 8.18307 8.99909 8.18307C9.40815 8.18307 9.80782 8.06041 10.1465 7.83093C10.4851 7.60145 10.7471 7.27569 10.8987 6.89576C11.1728 6.21101 12.1422 6.21101 12.4171 6.89576C12.5233 7.1571 12.6824 7.39365 12.8844 7.59055C13.0863 7.78744 13.3269 7.94043 13.5909 8.03988C13.8548 8.13934 14.1365 8.18312 14.4182 8.16846C14.6999 8.1538 14.9755 8.08103 15.2278 7.95472C15.48 7.82841 15.7034 7.6513 15.8838 7.4345C16.0643 7.2177 16.198 6.96592 16.2765 6.69497C16.3549 6.42403 16.3765 6.13977 16.3398 5.86009C16.3032 5.5804 16.209 5.31132 16.0634 5.06976L14.0795 1.6362H3.91869H3.91788Z" fill="white" fill-opacity="0.7"/>
</svg>
