<svg width="14" height="15" viewBox="0 0 14 15" fill="none" xmlns="http://www.w3.org/2000/svg">
<path d="M7.67147 12.649C7.7684 12.7536 7.84379 12.8762 7.89334 13.0098C7.94288 13.1435 7.96562 13.2856 7.96024 13.4281C7.95487 13.5705 7.92149 13.7105 7.86201 13.8401C7.80253 13.9696 7.71811 14.0862 7.61358 14.1831C7.50905 14.28 7.38645 14.3554 7.25279 14.405C7.11912 14.4545 6.977 14.4773 6.83455 14.4719C6.54685 14.461 6.27525 14.3363 6.0795 14.1252L0.290516 7.97442C0.10437 7.77371 0.000936163 7.51007 0.000936187 7.23633C0.000936211 6.96258 0.10437 6.69894 0.290517 6.49823L6.0795 0.347437C6.27526 0.136328 6.54686 0.0116294 6.83455 0.000772825C7.12225 -0.0100828 7.40247 0.0937924 7.61358 0.289547C7.82469 0.485302 7.94939 0.756903 7.96025 1.0446C7.9711 1.33229 7.86723 1.61252 7.67147 1.82363L2.56848 7.23633L7.67147 12.649ZM13.4605 12.649C13.5574 12.7536 13.6328 12.8762 13.6823 13.0098C13.7319 13.1435 13.7546 13.2856 13.7492 13.4281C13.7384 13.7158 13.6137 13.9874 13.4026 14.1831C13.1915 14.3789 12.9112 14.4827 12.6235 14.4719C12.3358 14.461 12.0642 14.3363 11.8685 14.1252L6.0795 7.97442C5.89335 7.77371 5.78992 7.51007 5.78992 7.23633C5.78992 6.96258 5.89335 6.69895 6.0795 6.49823L11.8685 0.347438C11.9654 0.242907 12.082 0.158492 12.2115 0.0990113C12.3411 0.0395306 12.4811 0.00614918 12.6235 0.000773331C12.766 -0.00460156 12.9081 0.018134 13.0418 0.0676822C13.1754 0.117229 13.298 0.192619 13.4026 0.289548C13.5071 0.386476 13.5915 0.503043 13.651 0.632595C13.7105 0.762147 13.7439 0.902147 13.7492 1.0446C13.7546 1.18705 13.7319 1.32917 13.6823 1.46284C13.6328 1.5965 13.5574 1.7191 13.4605 1.82363L8.35602 7.23633L13.4605 12.649Z" fill="#2DA6F7"/>
</svg>
