<svg width="1322" height="593" viewBox="0 0 1322 593" fill="none" xmlns="http://www.w3.org/2000/svg">
<g opacity="0.35">
<path d="M1292.76 102.066C1308.85 99.9569 1320.17 85.2088 1318.06 69.1252C1315.96 53.0415 1301.21 41.7129 1285.12 43.8219C1269.04 45.9309 1257.71 60.679 1259.82 76.7626C1261.93 92.8463 1276.68 104.175 1292.76 102.066Z" fill="#45A9A3" fill-opacity="0.9"/>
<path d="M1287.45 99.0804C1290.72 99.2918 1293.99 98.8569 1297.09 97.8007C1300.18 96.7445 1303.04 95.0877 1305.49 92.9254C1304.88 90.5883 1304.12 88.2918 1303.21 86.0492C1301.75 82.4431 1299.02 79.4924 1295.54 77.7466C1295.57 77.7041 1295.6 77.6662 1295.63 77.6236C1297.1 75.2583 1297.55 72.5054 1297.52 69.8284C1297.49 67.2792 1297.04 64.6496 1295.48 62.5029C1294.65 61.3563 1293.55 60.4376 1292.27 59.832C1290.99 59.2264 1289.58 58.9535 1288.17 59.0386C1285.03 59.3236 1282.49 61.642 1281.44 64.2437C1280.39 66.8454 1280.5 69.6501 1280.69 72.379C1280.83 74.3431 1281.38 76.2554 1282.32 77.9878C1280.13 79.4002 1278.22 81.2048 1276.69 83.3107C1274.9 85.6147 1274.98 85.7188 1273.85 88.434C1273.3 89.768 1272.75 91.1492 1272.28 92.6676C1276.46 96.4699 1281.81 98.732 1287.45 99.0804Z" fill="white"/>
</g>
<g opacity="0.35">
<path d="M125.224 577.3C137.338 570.197 141.402 554.619 134.3 542.504C127.198 530.389 111.619 526.325 99.5044 533.428C87.3895 540.53 83.3258 556.108 90.4279 568.223C97.5301 580.338 113.109 584.402 125.224 577.3Z" fill="#45A9A3" fill-opacity="0.9"/>
<path d="M119.985 576.709C122.659 575.777 125.123 574.328 127.235 572.442C129.347 570.557 131.066 568.273 132.294 565.722C131.016 564.066 129.635 562.491 128.161 561.006C125.777 558.624 122.609 557.19 119.247 556.97C119.251 556.928 119.265 556.887 119.273 556.843C119.648 554.462 119.078 552.115 118.152 549.991C117.274 547.966 116.028 546.021 114.06 544.835C113.012 544.2 111.822 543.84 110.598 543.788C109.375 543.736 108.158 543.994 107.06 544.537C104.656 545.821 103.412 548.526 103.449 550.956C103.485 553.385 104.518 555.585 105.593 557.695C106.363 559.216 107.449 560.554 108.779 561.621C107.51 563.484 106.597 565.566 106.086 567.762C105.437 570.201 105.533 570.258 105.551 572.803C105.56 574.053 105.588 575.339 105.723 576.709C110.339 578.332 115.37 578.332 119.985 576.709Z" fill="white"/>
</g>
<g opacity="0.35">
<path d="M18.7895 239.978C27.1053 242.26 35.6964 237.369 37.9783 229.053C40.2603 220.737 35.3689 212.146 27.0531 209.864C18.7373 207.582 10.1462 212.474 7.86429 220.789C5.58236 229.105 10.4737 237.696 18.7895 239.978Z" fill="#45A9A3" fill-opacity="0.9"/>
<path d="M16.8031 237.422C18.3587 238.198 20.0522 238.66 21.7865 238.78C23.5209 238.901 25.262 238.678 26.9099 238.124C27.0899 236.852 27.1906 235.57 27.2114 234.285C27.2368 232.216 26.5094 230.208 25.1646 228.636C25.1849 228.62 25.209 228.608 25.2316 228.593C26.4396 227.737 27.2267 226.48 27.7641 225.163C28.2776 223.908 28.599 222.527 28.2763 221.153C28.1066 220.421 27.7546 219.743 27.253 219.183C26.7514 218.622 26.1164 218.198 25.4069 217.948C23.8117 217.442 22.0896 218.054 21.037 219.112C19.9843 220.17 19.46 221.566 18.993 222.944C18.6544 223.934 18.5316 224.985 18.6327 226.027C17.2697 226.268 15.963 226.759 14.7785 227.475C13.428 228.236 13.4436 228.303 12.3328 229.401C11.7869 229.941 11.2336 230.505 10.6891 231.151C11.9542 233.876 14.1109 236.088 16.8031 237.422Z" fill="white"/>
</g>
<g opacity="0.35">
<path d="M1133.04 515.049C1130.11 506.941 1121.16 502.746 1113.05 505.681C1104.94 508.615 1100.75 517.567 1103.68 525.676C1106.62 533.784 1115.57 537.979 1123.68 535.044C1131.78 532.11 1135.98 523.158 1133.04 515.049Z" fill="#45A9A3" fill-opacity="0.9"/>
<path d="M1127.63 530.75C1128.93 529.603 1130 528.21 1130.77 526.65C1131.53 525.089 1131.99 523.393 1132.1 521.658C1130.99 521.011 1129.84 520.433 1128.65 519.928C1126.75 519.123 1124.62 519.038 1122.65 519.688C1122.64 519.663 1122.64 519.637 1122.64 519.61C1122.3 518.168 1121.44 516.965 1120.42 515.969C1119.45 515.02 1118.29 514.2 1116.9 513.98C1116.16 513.86 1115.4 513.93 1114.69 514.182C1113.98 514.435 1113.35 514.862 1112.85 515.425C1111.78 516.71 1111.69 518.536 1112.27 519.911C1112.86 521.285 1113.95 522.298 1115.05 523.251C1115.84 523.939 1116.76 524.45 1117.77 524.75C1117.48 526.103 1117.44 527.498 1117.65 528.866C1117.85 530.403 1117.91 530.414 1118.51 531.858C1118.8 532.567 1119.12 533.292 1119.51 534.041C1122.51 533.9 1125.37 532.739 1127.63 530.75Z" fill="white"/>
</g>
<g opacity="0.35">
<path d="M194.922 25.7616C200.636 27.139 206.385 23.6237 207.762 17.9099C209.139 12.1961 205.624 6.44753 199.91 5.07014C194.196 3.69276 188.448 7.20812 187.07 12.9219C185.693 18.6357 189.208 24.3843 194.922 25.7616Z" fill="#45A9A3" fill-opacity="0.9"/>
<path d="M193.514 24.0628C194.591 24.5585 195.754 24.8369 196.938 24.882C198.122 24.9271 199.304 24.7381 200.415 24.3257C200.51 23.4552 200.551 22.5796 200.538 21.704C200.511 20.294 199.973 18.9417 199.023 17.8991C199.037 17.8877 199.053 17.8792 199.068 17.8685C199.873 17.2596 200.382 16.3869 200.72 15.4777C201.043 14.6123 201.233 13.6644 200.984 12.7354C200.853 12.2399 200.598 11.7856 200.245 11.4145C199.891 11.0435 199.449 10.7679 198.961 10.6131C197.863 10.3019 196.703 10.7559 196.008 11.4989C195.314 12.2418 194.986 13.2047 194.698 14.153C194.488 14.8348 194.427 15.5536 194.518 16.261C193.594 16.4544 192.715 16.8168 191.923 17.3299C191.019 17.8769 191.031 17.9219 190.298 18.694C189.938 19.0733 189.573 19.4692 189.215 19.9214C190.135 21.7508 191.652 23.2118 193.514 24.0628Z" fill="white"/>
</g>
<g opacity="0.35">
<path d="M1040.92 186.762C1046.64 188.139 1052.38 184.624 1053.76 178.91C1055.14 173.196 1051.62 167.448 1045.91 166.07C1040.2 164.693 1034.45 168.208 1033.07 173.922C1031.69 179.636 1035.21 185.384 1040.92 186.762Z" fill="#45A9A3" fill-opacity="0.9"/>
<path d="M1039.51 185.063C1040.59 185.559 1041.75 185.837 1042.94 185.882C1044.12 185.927 1045.3 185.738 1046.41 185.326C1046.51 184.455 1046.55 183.58 1046.54 182.704C1046.51 181.294 1045.97 179.942 1045.02 178.899C1045.04 178.888 1045.05 178.879 1045.07 178.869C1045.87 178.26 1046.38 177.387 1046.72 176.478C1047.04 175.612 1047.23 174.664 1046.98 173.735C1046.85 173.24 1046.6 172.786 1046.24 172.415C1045.89 172.044 1045.45 171.768 1044.96 171.613C1043.86 171.302 1042.7 171.756 1042.01 172.499C1041.31 173.242 1040.99 174.205 1040.7 175.153C1040.49 175.835 1040.43 176.554 1040.52 177.261C1039.59 177.454 1038.71 177.817 1037.92 178.33C1037.02 178.877 1037.03 178.922 1036.3 179.694C1035.94 180.073 1035.57 180.469 1035.22 180.921C1036.14 182.751 1037.65 184.212 1039.51 185.063Z" fill="white"/>
</g>
<g opacity="0.35">
<path d="M225.645 364.288C229.454 364.701 232.876 361.947 233.288 358.139C233.701 354.33 230.948 350.908 227.139 350.495C223.33 350.082 219.908 352.836 219.495 356.645C219.083 360.453 221.836 363.876 225.645 364.288Z" fill="#45A9A3" fill-opacity="0.9"/>
<path d="M224.593 363.308C225.33 363.539 226.105 363.621 226.875 363.551C227.644 363.481 228.392 363.26 229.075 362.901C229.064 362.33 229.018 361.761 228.936 361.196C228.801 360.287 228.34 359.457 227.639 358.863C227.646 358.854 227.656 358.848 227.665 358.839C228.134 358.378 228.391 357.772 228.533 357.156C228.67 356.569 228.713 355.941 228.474 355.361C228.348 355.051 228.145 354.779 227.886 354.569C227.626 354.359 227.318 354.217 226.989 354.158C226.253 354.049 225.541 354.439 225.154 354.978C224.767 355.516 224.636 356.166 224.529 356.803C224.451 357.261 224.471 357.731 224.589 358.181C224.008 358.383 223.47 358.691 223.001 359.089C222.462 359.518 222.474 359.546 222.065 360.106C221.863 360.382 221.661 360.668 221.467 360.99C222.215 362.096 223.318 362.914 224.593 363.308Z" fill="white"/>
</g>
<g opacity="0.35">
<path d="M1292.04 387.804C1295.58 386.341 1297.26 382.285 1295.8 378.744C1294.34 375.203 1290.28 373.519 1286.74 374.982C1283.2 376.445 1281.52 380.501 1282.98 384.042C1284.44 387.583 1288.5 389.267 1292.04 387.804Z" fill="#45A9A3" fill-opacity="0.9"/>
<path d="M1290.65 387.447C1291.4 387.296 1292.12 386.997 1292.77 386.567C1293.41 386.137 1293.96 385.585 1294.39 384.942C1294.1 384.446 1293.79 383.968 1293.45 383.512C1292.89 382.779 1292.09 382.272 1291.19 382.086C1291.19 382.075 1291.2 382.064 1291.2 382.053C1291.39 381.423 1291.33 380.768 1291.16 380.159C1291 379.579 1290.73 379.006 1290.24 378.612C1289.99 378.401 1289.68 378.259 1289.35 378.198C1289.02 378.138 1288.68 378.162 1288.36 378.268C1287.67 378.524 1287.23 379.208 1287.15 379.866C1287.07 380.524 1287.26 381.157 1287.47 381.768C1287.62 382.208 1287.87 382.61 1288.19 382.948C1287.77 383.404 1287.45 383.932 1287.23 384.506C1286.96 385.141 1286.98 385.16 1286.89 385.848C1286.85 386.186 1286.81 386.535 1286.79 386.91C1287.98 387.523 1289.34 387.712 1290.65 387.447Z" fill="white"/>
</g>
</svg>
