<svg width="18" height="26" viewBox="0 0 18 26" fill="none" xmlns="http://www.w3.org/2000/svg">
<path d="M16.9276 1.07241C16.2407 0.385748 15.3092 0 14.338 0C13.3668 0 12.4353 0.385748 11.7484 1.07241L0 12.819L11.7484 24.5655C12.4626 25.2816 13.4003 25.6387 14.338 25.6387C15.2757 25.6387 16.2133 25.2816 16.9276 24.5655C17.6143 23.8787 18 22.9472 18 21.976C18 21.0047 17.6143 20.0732 16.9276 19.3864L10.362 12.819L16.9276 6.2516C17.6143 5.56472 18 4.63325 18 3.66201C18 2.69077 17.6143 1.75929 16.9276 1.07241Z" fill="#2DA6F7"/>
</svg>
