<svg width="14" height="15" viewBox="0 0 14 15" fill="none" xmlns="http://www.w3.org/2000/svg">
<path d="M7.67049 12.649C7.76742 12.7536 7.84281 12.8762 7.89236 13.0098C7.94191 13.1435 7.96464 13.2856 7.95927 13.4281C7.95389 13.5705 7.92051 13.7105 7.86103 13.8401C7.80155 13.9696 7.71713 14.0862 7.6126 14.1831C7.50807 14.28 7.38548 14.3554 7.25181 14.405C7.11814 14.4545 6.97603 14.4773 6.83357 14.4719C6.54588 14.461 6.27428 14.3363 6.07852 14.1252L0.28954 7.97442C0.103393 7.77371 -4.03993e-05 7.51007 -4.03754e-05 7.23633C-4.03514e-05 6.96258 0.103393 6.69894 0.28954 6.49823L6.07852 0.347437C6.27428 0.136328 6.54588 0.0116294 6.83358 0.000772825C7.12127 -0.0100828 7.4015 0.0937924 7.61261 0.289547C7.82371 0.485302 7.94841 0.756903 7.95927 1.0446C7.97012 1.33229 7.86625 1.61252 7.6705 1.82363L2.56751 7.23633L7.67049 12.649ZM13.4595 12.649C13.5564 12.7536 13.6318 12.8762 13.6813 13.0098C13.7309 13.1435 13.7536 13.2856 13.7483 13.4281C13.7374 13.7158 13.6127 13.9874 13.4016 14.1831C13.1905 14.3789 12.9103 14.4827 12.6226 14.4719C12.3349 14.461 12.0633 14.3363 11.8675 14.1252L6.07852 7.97442C5.89238 7.77371 5.78894 7.51007 5.78894 7.23633C5.78894 6.96258 5.89238 6.69895 6.07852 6.49823L11.8675 0.347438C11.9644 0.242907 12.081 0.158492 12.2106 0.0990113C12.3401 0.0395306 12.4801 0.00614918 12.6226 0.000773331C12.765 -0.00460156 12.9071 0.018134 13.0408 0.0676822C13.1745 0.117229 13.2971 0.192619 13.4016 0.289548C13.5061 0.386476 13.5905 0.503043 13.65 0.632595C13.7095 0.762147 13.7429 0.902147 13.7483 1.0446C13.7536 1.18705 13.7309 1.32917 13.6813 1.46284C13.6318 1.5965 13.5564 1.7191 13.4595 1.82363L8.35504 7.23633L13.4595 12.649Z" fill="#2DA6F7"/>
</svg>
