<svg width="719" height="261" viewBox="0 0 719 261" fill="none" xmlns="http://www.w3.org/2000/svg">
<g opacity="0.25">
<path d="M126.351 211.351C136.908 200.793 136.908 183.675 126.351 173.118C115.793 162.56 98.6748 162.56 88.1168 173.118C77.5589 183.675 77.5589 200.793 88.1168 211.351C98.6748 221.909 115.793 221.909 126.351 211.351Z" fill="#1A5753"/>
<path d="M105.773 216.603C109.084 216.82 112.405 216.382 115.547 215.313C118.688 214.244 121.588 212.565 124.079 210.373C123.455 208 122.683 205.669 121.767 203.393C120.283 199.733 117.519 196.737 113.99 194.964C114.017 194.922 114.051 194.883 114.076 194.841C115.569 192.438 116.024 189.649 116.002 186.928C115.98 184.341 115.51 181.677 113.936 179.493C112.362 177.309 109.482 175.71 106.52 175.979C103.338 176.266 100.777 178.618 99.6902 181.24C98.6031 183.861 98.7064 186.722 98.9277 189.494C99.0629 191.486 99.624 193.426 100.573 195.183C98.4801 196.447 96.6379 198.299 94.8596 200.594C93.0494 202.928 93.1232 203.038 91.9844 205.791C91.4237 207.146 90.8678 208.545 90.3857 210.085C94.6231 213.946 100.051 216.245 105.773 216.603Z" fill="white"/>
<path d="M124.101 46.1012C130.378 39.8235 130.378 29.6453 124.101 23.3675C117.823 17.0898 107.645 17.0898 101.367 23.3675C95.0891 29.6453 95.0891 39.8235 101.367 46.1012C107.645 52.3789 117.823 52.3789 124.101 46.1012Z" fill="#1A5753"/>
<path d="M111.865 49.2233C113.834 49.3526 115.809 49.0919 117.677 48.4562C119.544 47.8205 121.268 46.8224 122.75 45.519C122.379 44.1081 121.92 42.7219 121.375 41.3686C120.492 39.1925 118.849 37.4113 116.751 36.3568C116.767 36.3319 116.787 36.3085 116.802 36.2837C117.69 34.8549 117.96 33.1965 117.947 31.579C117.934 30.0405 117.655 28.4567 116.719 27.1581C115.783 25.8594 114.07 24.9088 112.309 25.0682C110.417 25.2393 108.895 26.6374 108.248 28.1964C107.602 29.7554 107.663 31.4562 107.795 33.1043C107.875 34.2889 108.209 35.4424 108.773 36.487C107.529 37.2387 106.433 38.3399 105.376 39.7043C104.3 41.0922 104.344 41.158 103.666 42.7945C103.333 43.6003 103.002 44.4324 102.716 45.3479C105.235 47.6437 108.463 49.0108 111.865 49.2233Z" fill="white"/>
<path d="M668.101 266.101C674.378 259.823 674.378 249.645 668.101 243.368C661.823 237.09 651.645 237.09 645.367 243.368C639.089 249.645 639.089 259.823 645.367 266.101C651.645 272.379 661.823 272.379 668.101 266.101Z" fill="#1A5753"/>
<path d="M655.865 269.223C657.834 269.353 659.809 269.092 661.677 268.456C663.544 267.821 665.268 266.822 666.75 265.519C666.379 264.108 665.92 262.722 665.375 261.369C664.492 259.192 662.849 257.411 660.751 256.357C660.767 256.332 660.787 256.309 660.802 256.284C661.69 254.855 661.96 253.196 661.947 251.579C661.934 250.041 661.655 248.457 660.719 247.158C659.783 245.859 658.07 244.909 656.309 245.068C654.417 245.239 652.895 246.637 652.248 248.196C651.602 249.755 651.663 251.456 651.795 253.104C651.875 254.289 652.209 255.442 652.773 256.487C651.529 257.239 650.433 258.34 649.376 259.704C648.3 261.092 648.344 261.158 647.666 262.794C647.333 263.6 647.002 264.432 646.716 265.348C649.235 267.644 652.463 269.011 655.865 269.223Z" fill="white"/>
<path d="M167.489 117.99C168.867 104.737 159.242 92.8759 145.989 91.497C132.737 90.1181 120.876 99.7437 119.497 112.996C118.118 126.249 127.743 138.11 140.996 139.489C154.249 140.868 166.11 131.242 167.489 117.99Z" fill="#68D1CB"/>
<path d="M142.285 136.303C145.003 136.48 147.729 136.119 150.308 135.241C152.886 134.363 155.266 132.984 157.31 131.184C156.799 129.235 156.165 127.321 155.412 125.452C154.192 122.446 151.921 119.985 149.023 118.527C149.045 118.492 149.069 118.458 149.095 118.426C150.32 116.466 150.692 114.16 150.673 111.926C150.656 109.799 150.274 107.611 148.978 105.818C147.681 104.024 145.319 102.711 142.886 102.93C140.273 103.169 138.169 105.099 137.274 107.252C136.379 109.404 136.484 111.759 136.66 114.046C136.773 115.682 137.234 117.276 138.012 118.72C136.294 119.758 134.772 121.281 133.319 123.155C131.865 125.03 131.894 125.164 130.957 127.428C130.496 128.538 130.042 129.688 129.65 130.956C133.131 134.123 137.588 136.01 142.285 136.303Z" fill="white"/>
<path d="M716.489 98.9896C717.867 85.737 708.242 73.8759 694.989 72.497C681.737 71.1181 669.876 80.7437 668.497 93.9963C667.118 107.249 676.743 119.11 689.996 120.489C703.249 121.868 715.11 112.242 716.489 98.9896Z" fill="#68D1CB"/>
<path d="M691.285 117.303C694.003 117.48 696.729 117.119 699.308 116.241C701.886 115.363 704.266 113.984 706.31 112.184C705.799 110.235 705.165 108.321 704.412 106.452C703.192 103.446 700.921 100.985 698.023 99.527C698.045 99.492 698.069 99.4582 698.095 99.4258C699.32 97.466 699.692 95.1599 699.673 92.9257C699.656 90.7993 699.274 88.6108 697.978 86.8176C696.681 85.0243 694.319 83.7112 691.886 83.9301C689.273 84.1685 687.169 86.099 686.274 88.2515C685.379 90.4041 685.484 92.7591 685.66 95.0456C685.773 96.6822 686.234 98.2759 687.012 99.7198C685.294 100.758 683.772 102.281 682.319 104.155C680.865 106.03 680.894 106.164 679.957 108.428C679.496 109.538 679.042 110.688 678.65 111.956C682.131 115.123 686.588 117.01 691.285 117.303Z" fill="white"/>
<path d="M33.3367 214.14C34.2471 205.39 27.8915 197.558 19.1411 196.648C10.3907 195.737 2.55895 202.093 1.64851 210.843C0.738061 219.594 7.09364 227.426 15.8441 228.336C24.5945 229.246 32.4262 222.891 33.3367 214.14Z" fill="#68D1CB"/>
<path d="M16.6948 226.233C18.4895 226.35 20.2896 226.112 21.9921 225.532C23.6945 224.952 25.2658 224.041 26.6157 222.853C26.2781 221.566 25.8595 220.302 25.3627 219.068C24.5567 217.083 23.0577 215.459 21.1441 214.496C21.1587 214.473 21.1745 214.45 21.1916 214.429C22.0003 213.135 22.2462 211.612 22.2333 210.137C22.2225 208.733 21.9701 207.288 21.1139 206.104C20.2577 204.92 18.6984 204.053 17.0916 204.197C15.3662 204.355 13.9773 205.629 13.3863 207.051C12.7954 208.472 12.8644 210.027 12.9809 211.537C13.0552 212.617 13.3596 213.67 13.8738 214.623C12.7393 215.309 11.7343 216.314 10.7745 217.552C9.8148 218.79 9.83421 218.878 9.21523 220.373C8.91113 221.106 8.61135 221.865 8.35254 222.702C10.6506 224.794 13.5933 226.039 16.6948 226.233Z" fill="white"/>
<path d="M48.6194 48.8587C49.3737 41.6089 44.1081 35.1204 36.8584 34.3661C29.6086 33.6118 23.1201 38.8774 22.3658 46.1271C21.6115 53.3768 26.8771 59.8654 34.1268 60.6197C41.3765 61.374 47.8651 56.1084 48.6194 48.8587Z" fill="#68D1CB"/>
<path d="M34.8315 58.8767C36.3184 58.9738 37.8098 58.7764 39.2203 58.2959C40.6307 57.8154 41.9325 57.0613 43.051 56.0767C42.7712 55.0106 42.4244 53.9632 42.0128 52.9408C41.3451 51.2964 40.1031 49.9503 38.5177 49.1527C38.5298 49.1335 38.5429 49.115 38.557 49.0973C39.2271 48.0252 39.4308 46.7637 39.4201 45.5414C39.4111 44.3782 39.2021 43.181 38.4927 42.2C37.7833 41.2191 36.4914 40.5007 35.1602 40.6205C33.7308 40.7509 32.58 41.8069 32.0904 42.9845C31.6008 44.162 31.658 45.4503 31.7545 46.7011C31.8161 47.5964 32.0683 48.4682 32.4943 49.2581C31.5544 49.8263 30.7217 50.659 29.9266 51.6846C29.1314 52.7103 29.1475 52.7835 28.6347 54.0218C28.3827 54.6294 28.1343 55.2583 27.9199 55.9516C29.8239 57.6846 32.2619 58.7164 34.8315 58.8767Z" fill="white"/>
<path d="M247.195 230.783C248.184 221.282 241.283 212.779 231.782 211.791C222.282 210.802 213.778 217.703 212.79 227.204C211.801 236.704 218.702 245.208 228.203 246.196C237.704 247.185 246.207 240.284 247.195 230.783Z" fill="#68D1CB"/>
<path d="M229.127 243.911C231.076 244.038 233.03 243.779 234.878 243.15C236.727 242.52 238.433 241.532 239.899 240.241C239.532 238.844 239.078 237.472 238.538 236.132C237.663 233.977 236.035 232.213 233.958 231.167C233.974 231.142 233.991 231.118 234.009 231.095C234.887 229.69 235.154 228.037 235.14 226.435C235.129 224.91 234.855 223.341 233.925 222.056C232.995 220.77 231.302 219.829 229.558 219.986C227.684 220.157 226.176 221.541 225.535 223.084C224.893 224.627 224.968 226.315 225.095 227.955C225.175 229.128 225.506 230.27 226.064 231.305C224.832 232.05 223.741 233.141 222.699 234.485C221.657 235.83 221.678 235.926 221.006 237.548C220.676 238.345 220.35 239.169 220.069 240.077C222.564 242.348 225.76 243.701 229.127 243.911Z" fill="white"/>
<path d="M43.2176 145.283C54.6954 143.782 62.7833 133.261 61.2824 121.783C59.7815 110.305 49.2602 102.217 37.7824 103.718C26.3046 105.219 18.2167 115.74 19.7176 127.218C21.2185 138.696 31.7398 146.784 43.2176 145.283Z" fill="#36837E"/>
<path d="M39.4308 143.151C41.7596 143.302 44.0955 142.993 46.3045 142.24C48.5134 141.487 50.552 140.305 52.3034 138.763C51.8646 137.095 51.3224 135.456 50.68 133.856C49.6354 131.282 47.691 129.176 45.209 127.929C45.2258 127.899 45.2495 127.872 45.2697 127.841C46.3194 126.154 46.64 124.189 46.6198 122.279C46.6029 120.46 46.2823 118.583 45.1685 117.051C44.5774 116.233 43.7893 115.577 42.8771 115.144C41.9649 114.712 40.9583 114.517 39.9506 114.577C37.7129 114.78 35.9005 116.433 35.1478 118.29C34.3952 120.146 34.4728 122.147 34.6112 124.095C34.7073 125.496 35.102 126.861 35.7688 128.098C34.2075 129.105 32.8458 130.392 31.7525 131.895C30.4767 133.538 30.5307 133.613 29.7274 135.55C29.3325 136.502 28.941 137.487 28.6035 138.571C31.5862 141.285 35.4057 142.901 39.4308 143.151Z" fill="white"/>
<path d="M197.524 67.9756C206.071 66.8579 212.094 59.0229 210.976 50.4756C209.859 41.9283 202.024 35.9054 193.476 37.0231C184.929 38.1408 178.906 45.9758 180.024 54.5231C181.141 63.0704 188.976 69.0933 197.524 67.9756Z" fill="#36837E"/>
<path d="M194.704 66.3877C196.438 66.5007 198.177 66.2702 199.822 65.7095C201.467 65.1488 202.985 64.269 204.289 63.1203C203.963 61.8783 203.559 60.6578 203.081 59.4659C202.303 57.5493 200.855 55.9808 199.006 55.0524C199.019 55.0298 199.037 55.0097 199.052 54.9871C199.833 53.7304 200.072 52.2676 200.057 50.8451C200.044 49.4904 199.806 48.0929 198.976 46.9519C198.536 46.3424 197.949 45.854 197.27 45.5319C196.591 45.2099 195.841 45.0646 195.091 45.1096C193.424 45.2604 192.075 46.4919 191.514 47.8743C190.954 49.2566 191.011 50.747 191.114 52.1973C191.186 53.241 191.48 54.2573 191.977 55.1781C190.814 55.9282 189.8 56.8868 188.986 58.0056C188.036 59.2296 188.076 59.2849 187.478 60.7276C187.184 61.4364 186.892 62.1703 186.641 62.9771C188.862 64.9984 191.706 66.2015 194.704 66.3877Z" fill="white"/>
<path d="M700.524 222.976C709.071 221.858 715.094 214.023 713.976 205.476C712.859 196.928 705.024 190.905 696.476 192.023C687.929 193.141 681.906 200.976 683.024 209.523C684.141 218.07 691.976 224.093 700.524 222.976Z" fill="#36837E"/>
<path d="M697.704 221.388C699.438 221.501 701.177 221.27 702.822 220.71C704.467 220.149 705.985 219.269 707.289 218.12C706.963 216.878 706.559 215.658 706.081 214.466C705.303 212.549 703.855 210.981 702.006 210.052C702.019 210.03 702.037 210.01 702.052 209.987C702.833 208.73 703.072 207.268 703.057 205.845C703.044 204.49 702.806 203.093 701.976 201.952C701.536 201.342 700.949 200.854 700.27 200.532C699.591 200.21 698.841 200.065 698.091 200.11C696.424 200.26 695.075 201.492 694.514 202.874C693.954 204.257 694.011 205.747 694.114 207.197C694.186 208.241 694.48 209.257 694.977 210.178C693.814 210.928 692.8 211.887 691.986 213.006C691.036 214.23 691.076 214.285 690.478 215.728C690.184 216.436 689.892 217.17 689.641 217.977C691.862 219.998 694.706 221.202 697.704 221.388Z" fill="white"/>
<path d="M203.177 176.323C210.259 175.397 215.249 168.905 214.323 161.823C213.397 154.741 206.905 149.751 199.823 150.677C192.741 151.603 187.751 158.095 188.677 165.177C189.603 172.259 196.095 177.249 203.177 176.323Z" fill="#36837E"/>
<path d="M200.84 175.008C202.277 175.102 203.718 174.911 205.081 174.446C206.444 173.982 207.702 173.253 208.783 172.301C208.512 171.272 208.177 170.261 207.781 169.273C207.136 167.685 205.937 166.385 204.405 165.616C204.416 165.597 204.43 165.581 204.443 165.562C205.09 164.521 205.288 163.309 205.276 162.13C205.265 161.008 205.067 159.85 204.38 158.904C204.015 158.399 203.529 157.995 202.966 157.728C202.403 157.461 201.782 157.34 201.161 157.378C199.78 157.503 198.662 158.523 198.197 159.668C197.733 160.814 197.781 162.049 197.866 163.25C197.925 164.115 198.169 164.957 198.58 165.72C197.617 166.342 196.777 167.136 196.102 168.063C195.315 169.077 195.348 169.123 194.853 170.318C194.609 170.906 194.367 171.514 194.159 172.182C196 173.857 198.356 174.854 200.84 175.008Z" fill="white"/>
<path d="M624.177 17.3231C631.259 16.397 636.249 9.9051 635.323 2.82306C634.397 -4.25899 627.905 -9.24939 620.823 -8.3233C613.741 -7.39722 608.751 -0.90535 609.677 6.1767C610.603 13.2587 617.095 18.2491 624.177 17.3231Z" fill="#36837E"/>
<path d="M621.84 16.0082C623.277 16.1018 624.718 15.9108 626.081 15.4463C627.444 14.9817 628.702 14.2527 629.783 13.3009C629.512 12.2718 629.177 11.2605 628.781 10.273C628.136 8.68497 626.937 7.38533 625.405 6.6161C625.416 6.59736 625.43 6.5807 625.443 6.56196C626.09 5.52071 626.288 4.30869 626.276 3.12999C626.265 2.00752 626.067 0.849652 625.38 -0.0958049C625.015 -0.600769 624.529 -1.00545 623.966 -1.2723C623.403 -1.53916 622.782 -1.65954 622.161 -1.62228C620.78 -1.49733 619.662 -0.476907 619.197 0.66847C618.733 1.81385 618.781 3.04878 618.866 4.25038C618.925 5.11518 619.169 5.95729 619.58 6.72023C618.617 7.34175 617.777 8.13603 617.102 9.06304C616.315 10.0772 616.348 10.123 615.853 11.3184C615.609 11.9057 615.367 12.5138 615.159 13.1822C617 14.857 619.356 15.8539 621.84 16.0082Z" fill="white"/>
</g>
</svg>
