<svg width="1364" height="628" viewBox="0 0 1364 628" fill="none" xmlns="http://www.w3.org/2000/svg">
<g opacity="0.7">
<g opacity="0.35" clip-path="url(#clip0_232_1410)">
<path d="M176.188 101.251C188.303 94.1486 192.367 78.5701 185.265 66.4552C178.163 54.3402 162.584 50.2766 150.469 57.3787C138.354 64.4809 134.291 80.0594 141.393 92.1743C148.495 104.289 164.073 108.353 176.188 101.251Z" fill="#2DA6F7" fill-opacity="0.9"/>
<path d="M170.949 100.66C173.623 99.7286 176.087 98.2787 178.199 96.3934C180.311 94.508 182.03 92.2243 183.258 89.6731C181.979 88.0169 180.599 86.442 179.125 84.9573C176.741 82.5754 173.573 81.141 170.21 80.9213C170.215 80.8794 170.229 80.838 170.237 80.7945C170.612 78.4129 170.042 76.0666 169.116 73.9417C168.238 71.9171 166.992 69.9719 165.024 68.7863C163.976 68.1513 162.786 67.791 161.562 67.739C160.338 67.6869 159.122 67.9447 158.024 68.4885C155.62 69.7724 154.376 72.4769 154.413 74.9067C154.449 77.3366 155.482 79.5361 156.557 81.6466C157.327 83.1672 158.413 84.5055 159.743 85.5719C158.474 87.4353 157.561 89.5173 157.05 91.7127C156.401 94.1522 156.497 94.2097 156.515 96.7539C156.523 98.004 156.552 99.2902 156.687 100.66C161.302 102.283 166.334 102.283 170.949 100.66Z" fill="white"/>
</g>
<g opacity="0.35" clip-path="url(#clip1_232_1410)">
<path d="M992.21 627.496C1008.29 625.387 1019.62 610.639 1017.51 594.555C1015.4 578.471 1000.66 567.143 984.572 569.252C968.489 571.361 957.16 586.109 959.269 602.192C961.378 618.276 976.126 629.605 992.21 627.496Z" fill="#2DA6F7" fill-opacity="0.9"/>
<path d="M986.901 624.51C990.165 624.721 993.438 624.287 996.533 623.23C999.628 622.174 1002.48 620.517 1004.94 618.355C1004.32 616.018 1003.56 613.721 1002.66 611.479C1001.2 607.873 998.469 604.922 994.991 603.176C995.014 603.134 995.047 603.096 995.076 603.053C996.546 600.688 996.994 597.935 996.965 595.258C996.94 592.709 996.49 590.079 994.928 587.933C994.1 586.786 992.995 585.867 991.716 585.262C990.438 584.656 989.027 584.383 987.615 584.468C984.479 584.753 981.94 587.072 980.887 589.673C979.833 592.275 979.943 595.08 980.137 597.809C980.273 599.773 980.827 601.685 981.762 603.418C979.574 604.83 977.667 606.635 976.135 608.74C974.348 611.044 974.424 611.148 973.299 613.864C972.746 615.198 972.198 616.579 971.726 618.097C975.907 621.9 981.26 624.162 986.901 624.51Z" fill="white"/>
</g>
<g opacity="0.35" clip-path="url(#clip2_232_1410)">
<path d="M516.444 174.23C524.76 176.512 533.351 171.621 535.633 163.305C537.915 154.989 533.023 146.398 524.707 144.116C516.392 141.834 507.801 146.726 505.519 155.041C503.237 163.357 508.128 171.948 516.444 174.23Z" fill="#2DA6F7" fill-opacity="0.9"/>
<path d="M514.458 171.674C516.014 172.45 517.707 172.912 519.442 173.032C521.176 173.153 522.917 172.929 524.565 172.376C524.745 171.104 524.846 169.821 524.867 168.537C524.892 166.468 524.165 164.46 522.82 162.888C522.84 162.872 522.864 162.86 522.887 162.845C524.095 161.989 524.882 160.732 525.419 159.415C525.933 158.16 526.254 156.779 525.932 155.405C525.762 154.673 525.41 153.995 524.908 153.434C524.407 152.874 523.772 152.45 523.062 152.2C521.467 151.694 519.745 152.306 518.692 153.364C517.64 154.421 517.115 155.818 516.648 157.196C516.31 158.186 516.187 159.237 516.288 160.279C514.925 160.52 513.618 161.011 512.434 161.727C511.083 162.488 511.099 162.555 509.988 163.653C509.442 164.193 508.889 164.757 508.344 165.403C509.609 168.128 511.766 170.34 514.458 171.674Z" fill="white"/>
</g>
<g opacity="0.35" clip-path="url(#clip3_232_1410)">
<path d="M11.2601 621.094C16.9739 622.471 22.7225 618.956 24.0999 613.242C25.4773 607.528 21.9619 601.78 16.2481 600.402C10.5343 599.025 4.78575 602.54 3.40837 608.254C2.03099 613.968 5.54635 619.716 11.2601 621.094Z" fill="#2DA6F7" fill-opacity="0.9"/>
<path d="M9.85217 619.393C10.9285 619.889 12.092 620.167 13.2761 620.212C14.4602 620.257 15.6416 620.068 16.7525 619.656C16.848 618.785 16.8893 617.91 16.876 617.034C16.8493 615.624 16.3109 614.272 15.3613 613.229C15.3748 613.218 15.3909 613.209 15.406 613.199C16.2107 612.59 16.7202 611.717 17.0582 610.808C17.3813 609.942 17.5708 608.994 17.3217 608.065C17.1905 607.57 16.9363 607.116 16.5826 606.745C16.2289 606.374 15.7873 606.098 15.2986 605.943C14.2011 605.632 13.041 606.086 12.3464 606.829C11.6518 607.572 11.3243 608.535 11.0355 609.483C10.826 610.165 10.7647 610.884 10.8558 611.591C9.93236 611.784 9.05264 612.147 8.26097 612.66C7.3571 613.207 7.36918 613.252 6.63585 614.024C6.27546 614.403 5.91052 614.799 5.55337 615.251C6.47325 617.081 7.98969 618.542 9.85217 619.393Z" fill="white"/>
</g>
<g opacity="0.35" clip-path="url(#clip4_232_1410)">
<path d="M1347.26 24.0937C1352.97 25.4711 1358.72 21.9557 1360.1 16.2419C1361.48 10.5281 1357.96 4.77956 1352.25 3.40218C1346.53 2.02479 1340.79 5.54015 1339.41 11.254C1338.03 16.9678 1341.55 22.7163 1347.26 24.0937Z" fill="#2DA6F7" fill-opacity="0.9"/>
<path d="M1345.85 22.3929C1346.93 22.8886 1348.09 23.167 1349.28 23.2121C1350.46 23.2572 1351.64 23.0682 1352.75 22.6557C1352.85 21.7853 1352.89 20.9097 1352.88 20.0341C1352.85 18.6241 1352.31 17.2718 1351.36 16.2291C1351.37 16.2178 1351.39 16.2093 1351.41 16.1986C1352.21 15.5897 1352.72 14.7169 1353.06 13.8077C1353.38 12.9423 1353.57 11.9945 1353.32 11.0655C1353.19 10.57 1352.94 10.1156 1352.58 9.74463C1352.23 9.37362 1351.79 9.09794 1351.3 8.94317C1350.2 8.63193 1349.04 9.08601 1348.35 9.82895C1347.65 10.5719 1347.32 11.5347 1347.04 12.483C1346.83 13.1649 1346.76 13.8836 1346.86 14.5911C1345.93 14.7844 1345.05 15.1468 1344.26 15.66C1343.36 16.207 1343.37 16.252 1342.64 17.0241C1342.28 17.4034 1341.91 17.7993 1341.55 18.2514C1342.47 20.0809 1343.99 21.5418 1345.85 22.3929Z" fill="white"/>
</g>
<g opacity="0.35" clip-path="url(#clip5_232_1410)">
<path d="M396.136 52.4307C399.945 52.8432 403.367 50.0899 403.78 46.2811C404.192 42.4722 401.439 39.0501 397.63 38.6376C393.821 38.2251 390.399 40.9783 389.986 44.7872C389.574 48.596 392.327 52.0181 396.136 52.4307Z" fill="#2DA6F7" fill-opacity="0.9"/>
<path d="M395.084 51.4506C395.821 51.6811 396.597 51.7637 397.366 51.6939C398.135 51.624 398.883 51.403 399.567 51.0435C399.556 50.4728 399.509 49.9033 399.427 49.3384C399.292 48.4291 398.831 47.6 398.13 47.0054C398.138 46.9969 398.147 46.9901 398.156 46.9819C398.625 46.521 398.882 45.9142 399.024 45.2982C399.161 44.7117 399.204 44.0831 398.965 43.5034C398.839 43.1941 398.637 42.9216 398.377 42.7114C398.117 42.5011 397.809 42.3598 397.48 42.3007C396.744 42.1912 396.032 42.5818 395.646 43.1202C395.259 43.6585 395.128 44.3083 395.02 44.9455C394.942 45.4038 394.962 45.8736 395.08 46.3233C394.499 46.5255 393.961 46.8333 393.492 47.2313C392.954 47.6605 392.965 47.6886 392.556 48.249C392.355 48.5244 392.152 48.8108 391.959 49.133C392.706 50.2387 393.809 51.0563 395.084 51.4506Z" fill="white"/>
</g>
<g opacity="0.35" clip-path="url(#clip6_232_1410)">
<path d="M1317.12 522.124C1314.19 514.015 1305.24 509.821 1297.13 512.755C1289.02 515.689 1284.83 524.641 1287.76 532.75C1290.69 540.858 1299.65 545.053 1307.76 542.119C1315.86 539.184 1320.06 530.232 1317.12 522.124Z" fill="#2DA6F7" fill-opacity="0.9"/>
<path d="M1311.7 537.824C1313.01 536.678 1314.08 535.284 1314.84 533.724C1315.61 532.164 1316.06 530.467 1316.17 528.732C1315.06 528.085 1313.91 527.507 1312.73 527.003C1310.83 526.197 1308.69 526.112 1306.73 526.762C1306.72 526.738 1306.72 526.711 1306.71 526.684C1306.38 525.242 1305.51 524.039 1304.5 523.043C1303.53 522.094 1302.37 521.274 1300.98 521.054C1300.23 520.934 1299.47 521.004 1298.77 521.256C1298.06 521.509 1297.42 521.937 1296.93 522.499C1295.85 523.785 1295.77 525.61 1296.35 526.985C1296.93 528.359 1298.03 529.372 1299.13 530.325C1299.92 531.013 1300.84 531.524 1301.84 531.824C1301.55 533.177 1301.51 534.572 1301.73 535.94C1301.92 537.478 1301.99 537.488 1302.59 538.932C1302.88 539.641 1303.19 540.367 1303.59 541.115C1306.59 540.974 1309.45 539.813 1311.7 537.824Z" fill="white"/>
</g>
</g>
<defs>
<clipPath id="clip0_232_1410">
<rect width="50.855" height="50.855" fill="white" transform="translate(130 65.8145) rotate(-22.9301)"/>
</clipPath>
<clipPath id="clip1_232_1410">
<rect width="58.7426" height="58.7426" fill="white" transform="translate(959 569.021) rotate(-0.0204924)"/>
</clipPath>
<clipPath id="clip2_232_1410">
<rect width="31.2273" height="31.2273" fill="white" transform="translate(512.225 138.732) rotate(22.7948)"/>
</clipPath>
<clipPath id="clip3_232_1410">
<rect width="21.2842" height="21.2842" fill="white" transform="translate(7.62891 597) rotate(21.0033)"/>
</clipPath>
<clipPath id="clip4_232_1410">
<rect width="21.2842" height="21.2842" fill="white" transform="translate(1343.63) rotate(21.0033)"/>
</clipPath>
<clipPath id="clip5_232_1410">
<rect width="13.8737" height="13.8737" fill="white" transform="translate(391.773 37.1602) rotate(13.6316)"/>
</clipPath>
<clipPath id="clip6_232_1410">
<rect width="31.2273" height="31.2273" fill="white" transform="translate(1280.36 527.443) rotate(-45)"/>
</clipPath>
</defs>
</svg>
