<svg width="388" height="245" viewBox="0 0 388 245" fill="none" xmlns="http://www.w3.org/2000/svg">
<path d="M0 6.96758C0.00515167 5.32488 0.6531 3.75088 1.80239 2.58928C2.95169 1.42768 4.50899 0.772778 6.13433 0.767578H279.854C281.48 0.772778 283.037 1.42768 284.186 2.58928C285.336 3.75088 285.984 5.32488 285.989 6.96758V26.9204H0V6.96758Z" fill="white"/>
<path d="M49.5911 19.0725C48.5672 19.0725 47.5662 18.7656 46.7149 18.1906C45.8635 17.6157 45.2 16.7985 44.8081 15.8424C44.4163 14.8862 44.3138 13.8342 44.5135 12.8191C44.7133 11.8041 45.2063 10.8718 45.9304 10.14C46.6544 9.40817 47.5769 8.90987 48.5811 8.70797C49.5854 8.50607 50.6263 8.60967 51.5723 9.00567C52.5183 9.40177 53.3268 10.0724 53.8957 10.9329C54.4645 11.7934 54.7682 12.8051 54.7682 13.84C54.7682 15.2277 54.2227 16.5586 53.2518 17.5399C52.2809 18.5212 50.9641 19.0725 49.5911 19.0725ZM49.5911 9.70327C48.7816 9.70327 47.9903 9.94587 47.3173 10.4004C46.6442 10.855 46.1196 11.501 45.8098 12.2569C45.5001 13.0128 45.419 13.8445 45.5769 14.647C45.7349 15.4494 46.1247 16.1865 46.697 16.765C47.2694 17.3435 47.9987 17.7375 48.7926 17.8971C49.5866 18.0567 50.4095 17.9748 51.1574 17.6617C51.9052 17.3486 52.5444 16.8184 52.9941 16.1382C53.4439 15.4579 53.6839 14.6581 53.6839 13.84C53.6813 12.7436 53.2493 11.693 52.4823 10.9178C51.7153 10.1426 50.6758 9.70587 49.5911 9.70327Z" fill="#2DA6F7"/>
<path d="M33.1516 19.0725C32.1281 19.0705 31.1282 18.762 30.2781 18.1858C29.428 17.6097 28.766 16.7918 28.3756 15.8355C27.9853 14.8792 27.8842 13.8275 28.085 12.8131C28.2859 11.7987 28.7797 10.8673 29.5041 10.1365C30.2285 9.40575 31.151 8.90834 32.155 8.70724C33.159 8.50614 34.1994 8.61034 35.1448 9.00674C36.0903 9.40304 36.8982 10.0737 37.4667 10.9339C38.0351 11.7942 38.3385 12.8055 38.3385 13.8399C38.3385 14.5279 38.2042 15.2092 37.9435 15.8446C37.6827 16.4801 37.3005 17.0574 36.8187 17.5434C36.3369 18.0294 35.7651 18.4146 35.1358 18.677C34.5066 18.9394 33.8323 19.0738 33.1516 19.0725ZM33.1516 9.70334C32.3426 9.70524 31.5522 9.94954 30.8805 10.4052C30.2087 10.861 29.6856 11.5077 29.3774 12.2637C29.0691 13.0198 28.9894 13.8512 29.1484 14.653C29.3075 15.4548 29.698 16.1909 30.2708 16.7685C30.8436 17.346 31.5729 17.739 32.3665 17.8978C33.1602 18.0566 33.9826 17.9742 34.7299 17.6608C35.4772 17.3474 36.1158 16.8172 36.5651 16.1371C37.0144 15.4571 37.2542 14.6577 37.2542 13.8399C37.2516 12.7419 36.8183 11.6898 36.0492 10.9143C35.2801 10.1388 34.238 9.70334 33.1516 9.70334Z" fill="#2DA6F7"/>
<path d="M16.722 19.0725C15.6984 19.0705 14.6985 18.762 13.8484 18.1858C12.9983 17.6097 12.3363 16.7918 11.9459 15.8355C11.5556 14.8792 11.4545 13.8275 11.6553 12.8131C11.8562 11.7987 12.35 10.8673 13.0744 10.1365C13.7989 9.40575 14.7213 8.90834 15.7253 8.70724C16.7293 8.50614 17.7697 8.61034 18.7152 9.00674C19.6606 9.40304 20.4685 10.0737 21.037 10.9339C21.6054 11.7942 21.9088 12.8055 21.9088 13.8399C21.9088 14.5279 21.7746 15.2092 21.5138 15.8446C21.253 16.4801 20.8708 17.0574 20.389 17.5434C19.9072 18.0294 19.3354 18.4146 18.7061 18.677C18.0769 18.9394 17.4026 19.0738 16.722 19.0725ZM16.722 9.70334C15.9125 9.70334 15.1212 9.94594 14.4481 10.4004C13.7751 10.855 13.2505 11.501 12.9407 12.2569C12.6309 13.0128 12.5499 13.8445 12.7078 14.647C12.8657 15.4494 13.2555 16.1865 13.8279 16.765C14.4003 17.3435 15.1296 17.7375 15.9235 17.8971C16.7174 18.0567 17.5403 17.9748 18.2882 17.6617C19.0361 17.3486 19.6753 16.8184 20.125 16.1382C20.5747 15.4579 20.8148 14.6581 20.8148 13.8399C20.8122 12.7436 20.3802 11.693 19.6132 10.9178C18.8462 10.1426 17.8066 9.70594 16.722 9.70334Z" fill="#2DA6F7"/>
<path d="M279.854 217.295H6.13433C4.50899 217.29 2.95169 216.635 1.80239 215.474C0.6531 214.312 0.00515167 212.738 0 211.095V26.9199H285.989V211.095C285.984 212.738 285.336 214.312 284.186 215.474C283.037 216.635 281.48 217.29 279.854 217.295Z" fill="#046CB1"/>
<path d="M284.25 32.2129H1.73828V195.438H284.25V32.2129Z" fill="white"/>
<path d="M126.918 46.2109H19.3036C17.2482 46.2109 15.582 47.895 15.582 49.9724V64.4952C15.582 66.5726 17.2482 68.257 19.3036 68.257H126.918C128.974 68.257 130.64 66.5726 130.64 64.4952V49.9724C130.64 47.895 128.974 46.2109 126.918 46.2109Z" fill="#2DA6F7"/>
<path d="M266.688 47.1982C267.416 47.1982 268.114 47.4905 268.629 48.0108C269.143 48.531 269.433 49.2367 269.433 49.9724V64.4952C269.433 65.231 269.143 65.9366 268.629 66.4569C268.114 66.9771 267.416 67.2694 266.688 67.2694H159.073C158.345 67.2694 157.647 66.9771 157.132 66.4569C156.618 65.9366 156.328 65.231 156.328 64.4952V49.9724C156.328 49.2367 156.618 48.531 157.132 48.0108C157.647 47.4905 158.345 47.1982 159.073 47.1982H266.688ZM266.688 46.2109H159.073C158.087 46.2135 157.142 46.6107 156.444 47.3155C155.747 48.0204 155.354 48.9756 155.352 49.9724V64.4952C155.352 65.4928 155.744 66.4496 156.442 67.155C157.14 67.8604 158.086 68.257 159.073 68.257H266.688C267.675 68.257 268.621 67.8604 269.319 67.155C270.017 66.4496 270.409 65.4928 270.409 64.4952V49.9724C270.407 48.9756 270.014 48.0204 269.316 47.3155C268.619 46.6107 267.674 46.2135 266.688 46.2109Z" fill="#2DA6F7"/>
<path d="M34.7078 78.1296C38.2974 78.1296 41.8063 79.2056 44.7909 81.2206C47.7755 83.2366 50.1017 86.1016 51.4753 89.4536C52.849 92.8046 53.2084 96.4936 52.5081 100.052C51.8078 103.61 50.0793 106.879 47.5411 109.444C45.0029 112.01 41.7691 113.757 38.2485 114.464C34.7279 115.172 31.0788 114.809 27.7625 113.42C24.4462 112.032 21.6117 109.681 19.6175 106.664C17.6232 103.648 16.5588 100.101 16.5588 96.4726C16.564 91.6096 18.4777 86.9466 21.8802 83.5076C25.2827 80.0686 29.896 78.1346 34.7078 78.1296ZM34.7078 77.1426C30.9251 77.1426 27.2273 78.2756 24.0821 80.3996C20.9368 82.5236 18.4854 85.5436 17.0379 89.0756C15.5903 92.6076 15.2115 96.4946 15.9495 100.245C16.6875 103.994 18.509 107.439 21.1838 110.142C23.8586 112.846 27.2665 114.687 30.9765 115.433C34.6866 116.179 38.5322 115.796 42.027 114.333C45.5217 112.87 48.5088 110.392 50.6104 107.213C52.7119 104.034 53.8336 100.297 53.8336 96.4726C53.8336 91.3456 51.8186 86.4296 48.2318 82.8036C44.645 79.1786 39.7803 77.1426 34.7078 77.1426Z" fill="#2DA6F7"/>
<path opacity="0.4" d="M48.546 104.075C47.1917 106.603 45.187 108.714 42.7438 110.185C40.3005 111.656 37.5095 112.432 34.6656 112.432C31.8218 112.432 29.0307 111.656 26.5875 110.185C24.1442 108.714 22.1395 106.603 20.7852 104.075C24.894 101.301 29.7243 99.8203 34.6656 99.8203C39.6069 99.8203 44.4373 101.301 48.546 104.075Z" fill="#2DA6F7"/>
<path opacity="0.4" d="M34.7048 98.1233C38.5891 98.1233 41.7378 94.9403 41.7378 91.0153C41.7378 87.0893 38.5891 83.9062 34.7048 83.9062C30.8206 83.9062 27.6719 87.0893 27.6719 91.0153C27.6719 94.9403 30.8206 98.1233 34.7048 98.1233Z" fill="#2DA6F7"/>
<path opacity="0.4" d="M260.574 106.415H74.4145C71.8057 106.415 69.3038 105.367 67.4591 103.503C65.6144 101.638 64.5781 99.11 64.5781 96.473C64.5781 95.168 64.8326 93.876 65.327 92.67C65.8215 91.464 66.5462 90.369 67.4597 89.447C68.3732 88.524 69.4576 87.793 70.651 87.294C71.8443 86.796 73.1232 86.54 74.4145 86.541H260.574C261.865 86.54 263.144 86.796 264.337 87.294C265.531 87.793 266.615 88.524 267.529 89.447C268.442 90.369 269.167 91.464 269.661 92.67C270.156 93.876 270.41 95.168 270.41 96.473C270.41 99.11 269.374 101.638 267.529 103.503C265.685 105.367 263.183 106.415 260.574 106.415Z" fill="#2DA6F7"/>
<path d="M34.7078 130.841C38.2974 130.841 41.8063 131.917 44.7909 133.932C47.7755 135.948 50.1017 138.813 51.4753 142.165C52.849 145.516 53.2084 149.205 52.5081 152.763C51.8078 156.321 50.0793 159.59 47.5411 162.155C45.0029 164.72 41.7691 166.467 38.2485 167.175C34.7279 167.883 31.0788 167.52 27.7625 166.131C24.4462 164.743 21.6117 162.392 19.6175 159.375C17.6232 156.359 16.5588 152.812 16.5588 149.184C16.5614 144.32 18.4743 139.656 21.8774 136.216C25.2804 132.777 29.8952 130.843 34.7078 130.841ZM34.7078 129.854C30.9251 129.854 27.2273 130.987 24.0821 133.111C20.9368 135.235 18.4854 138.254 17.0379 141.787C15.5903 145.319 15.2115 149.206 15.9495 152.956C16.6875 156.705 18.509 160.15 21.1838 162.853C23.8586 165.557 27.2665 167.398 30.9765 168.144C34.6866 168.889 38.5322 168.507 42.027 167.044C45.5217 165.58 48.5088 163.103 50.6104 159.924C52.7119 156.745 53.8336 153.008 53.8336 149.184C53.8336 144.057 51.8186 139.141 48.2318 135.515C44.645 131.89 39.7803 129.854 34.7078 129.854Z" fill="#2DA6F7"/>
<path opacity="0.4" d="M48.546 156.728C47.1917 159.255 45.187 161.366 42.7438 162.837C40.3005 164.308 37.5095 165.084 34.6656 165.084C31.8218 165.084 29.0307 164.308 26.5875 162.837C24.1442 161.366 22.1395 159.255 20.7852 156.728C24.8963 153.959 29.7258 152.482 34.6656 152.482C39.6055 152.482 44.4349 153.959 48.546 156.728Z" fill="#2DA6F7"/>
<path opacity="0.4" d="M34.7048 150.773C38.5891 150.773 41.7378 147.591 41.7378 143.665C41.7378 139.739 38.5891 136.557 34.7048 136.557C30.8206 136.557 27.6719 139.739 27.6719 143.665C27.6719 147.591 30.8206 150.773 34.7048 150.773Z" fill="#2DA6F7"/>
<path opacity="0.4" d="M74.4145 139.193H260.574C263.183 139.193 265.685 140.241 267.529 142.105C269.374 143.97 270.41 146.498 270.41 149.135C270.41 151.772 269.374 154.301 267.529 156.165C265.685 158.03 263.183 159.077 260.574 159.077H74.4145C71.8057 159.077 69.3038 158.03 67.4591 156.165C65.6144 154.301 64.5781 151.772 64.5781 149.135C64.5768 147.829 64.8303 146.536 65.3242 145.329C65.8181 144.122 66.5426 143.026 67.4562 142.102C68.3699 141.179 69.4547 140.447 70.6487 139.947C71.8427 139.448 73.1224 139.192 74.4145 139.193Z" fill="#2DA6F7"/>
<path opacity="0.1" d="M214.72 158.779C214.719 164.819 215.304 170.843 216.468 176.767C211.005 180.046 206.478 184.702 203.33 190.28C200.181 195.857 198.518 202.165 198.505 208.587C198.485 211.519 198.813 214.442 199.482 217.295H279.853C281.478 217.29 283.036 216.635 284.185 215.473C285.334 214.311 285.982 212.737 285.987 211.095V68.9277C265.777 73.4957 247.708 84.8827 234.755 101.214C221.801 117.546 214.735 137.848 214.72 158.779Z" fill="black"/>
<path d="M363.208 220.737C394.942 188.663 394.942 136.661 363.208 104.587C331.474 72.5127 280.023 72.5127 248.289 104.587C216.555 136.661 216.555 188.663 248.289 220.737C280.023 252.812 331.474 252.812 363.208 220.737Z" fill="#046CB1"/>
<path d="M358.511 215.505C387.441 186.265 387.441 138.857 358.511 109.616C329.58 80.3755 282.675 80.3755 253.744 109.616C224.814 138.857 224.814 186.265 253.744 215.505C282.675 244.745 329.58 244.745 358.511 215.505Z" fill="white"/>
<path d="M281.135 112.328L276.408 118.449C276.408 118.449 272.256 121.628 270.684 124.373C268.847 126.209 267.167 128.095 265.506 130.079C263.603 132.348 261.829 134.725 260.193 137.197C258.4 139.842 256.919 142.688 255.778 145.678C255.055 147.571 254.655 149.574 254.596 151.602C254.57 153.036 254.822 154.461 255.338 155.798C255.985 157.434 257.055 158.866 258.434 159.944L259.47 160.734L261.023 161.03C264.089 161.619 267.201 161.93 270.322 161.958L271.553 161.85L270.283 149.331C269.238 149.331 266.991 149.538 265.966 149.519C265.966 149.321 266.044 149.124 266.093 148.926C266.711 146.544 267.562 144.229 268.632 142.015C269.726 139.616 270.986 137.217 272.295 134.828C273.448 132.715 274.688 130.593 275.89 128.519L281.751 124.787L285.179 118.637L281.135 112.328ZM265.887 151.325C265.879 151.23 265.879 151.134 265.887 151.039C265.929 151.109 265.958 151.186 265.975 151.266C266.005 151.503 265.936 151.513 265.887 151.325Z" fill="#DDABAB"/>
<path d="M314.422 125.558C314.569 124.797 314.334 124.748 314.139 124.748C313.963 124.821 313.805 124.934 313.678 125.078C313.552 125.221 313.459 125.392 313.406 125.577C312.485 127.037 311.295 128.304 309.9 129.309C309.704 129.447 309.519 129.596 309.314 129.734C307.605 130.891 305.615 131.553 303.56 131.649C303.56 131.856 303.629 132.064 303.668 132.271C303.736 132.755 303.795 133.258 303.824 133.712C304.049 136.862 303.228 139.794 299.721 141.463C299.721 141.66 299.243 141.867 299.086 142.006C297.788 143.16 296.96 144.761 296.762 146.498C296.762 147.781 297.963 148.798 299.36 150.022L301.314 151.355L303.99 151.098C312.205 148.66 316.044 141.077 315.868 140.515C313.758 137 313.787 130.839 314.422 125.558Z" fill="#DDABAB"/>
<path d="M332.18 143.546L330.695 143.289C328.741 142.973 320.028 140.979 315.818 140.604C314.841 142.706 311.637 147.84 303.423 150.279L301.391 150.763L299.437 149.775C298.833 149.335 298.331 148.769 297.963 148.115C297.596 147.46 297.372 146.734 297.308 145.984C297.374 145.213 297.598 144.464 297.964 143.785C298.331 143.105 298.832 142.51 299.437 142.035C299.508 141.973 299.565 141.895 299.603 141.808C299.603 141.571 299.603 141.413 299.603 141.393C298.988 141.472 291.193 142.667 290.538 142.776C283.19 144.148 275.976 146.173 268.98 148.827L269.059 149.538L270.475 161.968L271.002 166.677C271.002 166.677 274.91 166.233 280.038 165.325C278.641 177.903 278.367 196.128 282.636 219.555L299.31 219.24L328.282 218.697C328.399 216.722 328.185 212.635 327.979 207.047L327.716 198.418C327.559 190.796 327.589 181.634 328.263 171.841C328.37 170.291 328.497 168.731 328.634 167.151C334.553 173.618 340.482 179.798 340.482 179.798L343.286 177.073C346.871 175.326 349.694 172.196 352.155 168.435L355.447 165.226C355.447 165.226 340.189 144.908 332.18 143.546Z" fill="#2DA6F7"/>
<path opacity="0.3" d="M324.16 162.078C324.383 164.133 325.032 166.118 326.065 167.903L328.312 171.793C328.419 170.243 328.546 168.683 328.683 167.103C327.139 165.395 325.596 163.707 324.16 162.078Z" fill="black"/>
<path opacity="0.3" d="M328.695 167.113C328.559 168.693 328.432 170.253 328.324 171.803C328.422 170.253 328.559 168.683 328.695 167.113Z" fill="black"/>
<path d="M303.562 131.65C303.562 131.858 303.63 132.065 303.669 132.272C303.669 132.065 303.602 131.858 303.562 131.65Z" fill="#7F3E3B"/>
<path opacity="0.2" d="M303.824 133.713C303.824 133.239 303.736 132.726 303.668 132.271C303.736 132.755 303.795 133.239 303.824 133.713Z" fill="black"/>
<path d="M309.901 129.311C309.706 129.449 309.52 129.597 309.315 129.735C307.606 130.892 305.616 131.554 303.562 131.65C303.562 131.858 303.63 132.065 303.669 132.272C303.737 132.756 303.797 133.26 303.826 133.714C303.826 133.714 303.826 133.773 303.826 133.803C306.36 133.178 308.544 131.562 309.901 129.311Z" fill="#7F3E3B"/>
<path d="M320.871 142.105C320.785 141.699 320.587 141.326 320.3 141.029C320.013 140.732 319.649 140.523 319.249 140.427L317.218 139.933C316.964 139.873 316.697 139.897 316.458 140.002C316.218 140.106 316.019 140.287 315.889 140.516L315.821 140.604C314.844 142.707 311.64 147.841 303.425 150.28L302.79 150.428L301.393 150.763L299.44 149.776C298.836 149.336 298.333 148.77 297.966 148.115C297.598 147.461 297.375 146.734 297.31 145.985C297.377 145.214 297.601 144.465 297.967 143.786C298.333 143.106 298.835 142.51 299.44 142.036C299.547 141.925 299.642 141.802 299.723 141.671C299.811 141.444 299.791 141.335 299.635 141.236C297.476 139.666 292.651 142.085 292.456 142.5C292.25 142.707 292.045 142.924 291.84 143.171C291.238 143.888 290.788 144.723 290.519 145.623C290.25 146.523 290.168 147.47 290.277 148.404C290.481 149.975 291.032 151.479 291.889 152.805C292.747 154.131 293.888 155.246 295.23 156.065C295.274 156.079 295.322 156.079 295.366 156.065C295.418 156.08 295.472 156.08 295.523 156.065C295.565 156.035 295.6 155.995 295.623 155.949C295.647 155.902 295.66 155.851 295.66 155.798C295.664 154.631 296.009 153.491 296.652 152.522C297.295 151.552 298.207 150.796 299.274 150.349L300.983 151.277C293.638 181.744 298.619 218.263 298.756 219.25H299.323C299.323 218.875 294.145 182.04 301.55 151.405L303.337 150.971C305.418 153.538 304.431 157.348 304.421 157.388C304.408 157.441 304.409 157.496 304.424 157.549C304.44 157.601 304.469 157.648 304.509 157.684C304.564 157.73 304.634 157.754 304.705 157.753C304.74 157.763 304.777 157.763 304.812 157.753C305.203 157.576 314.443 153.488 317.677 149.589C319.203 147.725 320.28 145.528 320.822 143.171C320.929 142.826 320.946 142.459 320.871 142.105Z" fill="white"/>
<path d="M309.901 129.311C309.706 129.449 309.52 129.597 309.315 129.735C307.606 130.892 305.616 131.554 303.562 131.65C303.562 131.858 303.63 132.065 303.669 132.272C303.737 132.756 303.797 133.26 303.826 133.714C303.826 133.714 303.826 133.773 303.826 133.803C306.36 133.178 308.544 131.562 309.901 129.311Z" fill="#C18E8E"/>
<path d="M295.678 106.276C296.616 104.537 297.827 102.964 299.263 101.616C298.621 101.135 298.06 100.551 297.602 99.8887C296.069 100.619 294.613 102.683 293.861 107.303C293.681 108.393 293.655 109.503 293.783 110.601C294.066 109.732 294.392 108.879 294.76 108.044L295.678 106.276Z" fill="#263238"/>
<path d="M313.845 118.4C318.251 113.237 315.447 106.671 312.868 105.2C313.347 98.2891 303.53 97.4011 299.271 101.616C297.835 102.964 296.624 104.537 295.687 106.276L294.798 108.044C294.429 108.879 294.103 109.732 293.821 110.601C292.746 113.722 292.185 117.001 292.16 120.305C292.153 121.815 292.446 123.31 293.02 124.703C293.595 126.096 294.44 127.359 295.505 128.416C296.57 129.474 297.835 130.304 299.223 130.86C300.612 131.415 302.096 131.684 303.589 131.649C305.644 131.553 307.633 130.891 309.342 129.734C309.547 129.596 309.733 129.448 309.928 129.309C311.323 128.304 312.514 127.037 313.435 125.577C315.604 122.033 315.037 120.246 313.845 118.4Z" fill="#DDABAB"/>
<path d="M294.263 107.462C294.199 107.547 294.17 107.655 294.183 107.762C294.195 107.869 294.249 107.966 294.331 108.034C294.404 108.091 294.493 108.122 294.585 108.123C294.664 108.121 294.739 108.093 294.8 108.044C294.839 108.027 294.873 107.999 294.898 107.965C295.21 107.548 295.613 107.21 296.076 106.975C296.538 106.741 297.047 106.617 297.565 106.612C297.672 106.618 297.777 106.581 297.857 106.509C297.938 106.437 297.987 106.336 297.994 106.227C297.998 106.174 297.992 106.121 297.976 106.07C297.959 106.019 297.933 105.973 297.898 105.932C297.864 105.892 297.822 105.859 297.775 105.835C297.727 105.811 297.676 105.797 297.623 105.793C296.943 105.789 296.271 105.955 295.67 106.277C295.125 106.569 294.646 106.973 294.263 107.462Z" fill="#263238"/>
<path d="M304.831 119.29C304.792 119.253 304.742 119.232 304.689 119.232C304.636 119.232 304.585 119.253 304.547 119.29C303.879 119.856 303.092 120.26 302.245 120.472C301.399 120.684 300.516 120.699 299.663 120.514C299.612 120.505 299.559 120.516 299.515 120.546C299.471 120.575 299.441 120.62 299.429 120.672C299.42 120.725 299.431 120.78 299.46 120.826C299.489 120.872 299.533 120.905 299.585 120.919C300.051 121.012 300.526 121.055 301.002 121.047C302.4 121.034 303.748 120.516 304.801 119.586C304.823 119.569 304.841 119.547 304.854 119.523C304.867 119.499 304.875 119.472 304.878 119.444C304.881 119.417 304.878 119.389 304.87 119.362C304.862 119.336 304.848 119.311 304.831 119.29Z" fill="#263238"/>
<path d="M299.585 112.24C298.292 114.154 296.751 115.884 295.004 117.384C295.981 118.746 298.091 118.648 298.091 118.648L299.585 112.24Z" fill="#C18E8E"/>
<path d="M296.129 112.477C296.569 112.566 297.106 112.092 297.213 111.41C297.321 110.729 297.145 110.117 296.705 110.028C296.266 109.939 295.777 110.413 295.621 111.095C295.465 111.776 295.68 112.388 296.129 112.477Z" fill="#263238"/>
<path d="M303.766 114.057C304.206 114.146 304.685 113.672 304.851 112.991C305.017 112.309 304.773 111.697 304.333 111.608C303.893 111.52 303.405 111.993 303.249 112.675C303.092 113.356 303.317 113.928 303.766 114.057Z" fill="#263238"/>
<path d="M313.761 105.171C313.497 105.171 313.194 105.171 312.872 105.171C312.313 106.546 311.923 107.985 311.709 109.456C311.44 111.006 311.491 112.596 311.859 114.125C312.227 115.654 312.904 117.09 313.848 118.341C315.802 121.777 318.41 121.678 320.637 119.062C324.212 115.587 327.66 108.666 320.54 103.266C319.426 104.263 317.326 104.964 313.761 105.171Z" fill="#263238"/>
<path d="M318.741 117.088C317.119 116.417 315.293 117.206 313.857 118.401C313.069 119.034 312.386 119.791 311.835 120.642C310.458 122.824 310.946 125.361 313.417 125.578H313.847H314.433C316.379 125.378 318.197 124.506 319.581 123.11C320.094 122.61 320.464 121.979 320.651 121.284C320.839 120.589 320.837 119.855 320.646 119.161C320.506 118.691 320.262 118.26 319.932 117.901C319.601 117.541 319.194 117.263 318.741 117.088Z" fill="#DDABAB"/>
<path d="M299.275 101.617C302.85 104.332 309.355 105.171 312.872 105.171C313.194 105.171 313.497 105.171 313.761 105.171C317.326 104.964 319.426 104.263 320.54 103.296C324.671 99.7216 315.255 92.4355 315.255 92.4355C315.255 92.4355 316.31 95.0416 314.122 95.7626C311.934 96.4826 296.54 90.6776 296.764 97.2626C296.806 98.1906 297.1 99.0896 297.614 99.8596C298.069 100.533 298.63 101.126 299.275 101.617Z" fill="#263238"/>
<path d="M282.69 219.507C282.69 219.507 282.426 221.818 282.016 225.698C296.975 230.81 313.158 230.962 328.209 226.132C328.306 221.443 328.375 218.639 328.375 218.639L299.364 219.192H298.797L282.69 219.507Z" fill="#263238"/>
<path d="M358.196 179.75C358.113 178.909 357.922 178.083 357.629 177.291C357.489 176.899 357.323 176.516 357.131 176.146L356.848 175.613L356.692 175.337C355.295 172.908 353.761 170.608 352.198 168.426L343.329 177.064C344.501 178.545 345.644 180.026 346.699 181.547C346.503 182.051 346.251 182.532 345.947 182.978C344.527 184.972 342.888 186.797 341.063 188.418C337.237 191.9 333.23 195.173 329.058 198.222L327.7 198.399L322.249 199.15L316.887 202.812L320.413 210.059L324.848 207.769C325.907 207.621 326.95 207.373 327.964 207.028C329.531 206.615 330.896 205.64 331.803 204.283C334.397 203.245 336.937 202.071 339.412 200.769C342.073 199.381 344.649 197.835 347.129 196.138C348.385 195.27 349.629 194.319 350.86 193.285C352.167 192.201 353.377 191.002 354.474 189.701C355.88 188.095 356.961 186.227 357.659 184.202C358.15 182.774 358.334 181.256 358.196 179.75ZM346.777 181.31C346.777 181.26 346.777 181.201 346.777 181.162C346.777 180.925 346.865 180.836 346.865 180.974C346.86 181.089 346.837 181.202 346.796 181.31H346.777Z" fill="#DDABAB"/>
<path d="M261.574 208.937C263.946 194.163 254.02 180.242 239.403 177.844C224.786 175.446 211.013 185.479 208.64 200.252C206.267 215.026 216.193 228.947 230.811 231.345C245.428 233.743 259.201 223.711 261.574 208.937Z" fill="#263238"/>
<path d="M249.826 202.042H237.597V189.682C237.597 189.009 237.332 188.364 236.861 187.888C236.391 187.412 235.752 187.145 235.086 187.145C234.42 187.145 233.782 187.412 233.311 187.888C232.84 188.364 232.576 189.009 232.576 189.682V202.042H220.346C219.681 202.042 219.042 202.31 218.571 202.786C218.1 203.261 217.836 203.907 217.836 204.58C217.836 205.253 218.1 205.898 218.571 206.374C219.042 206.85 219.681 207.117 220.346 207.117H232.576V219.478C232.576 219.811 232.641 220.141 232.767 220.449C232.893 220.756 233.078 221.036 233.311 221.272C233.544 221.507 233.821 221.694 234.126 221.822C234.43 221.949 234.757 222.015 235.086 222.015C235.416 222.015 235.742 221.949 236.047 221.822C236.352 221.694 236.628 221.507 236.861 221.272C237.094 221.036 237.279 220.756 237.406 220.449C237.532 220.141 237.597 219.811 237.597 219.478V207.117H249.826C250.492 207.117 251.131 206.85 251.601 206.374C252.072 205.898 252.337 205.253 252.337 204.58C252.337 203.907 252.072 203.261 251.601 202.786C251.131 202.31 250.492 202.042 249.826 202.042Z" fill="white"/>
<path d="M305.221 108.883C305.712 108.984 306.171 109.203 306.559 109.523C306.947 109.843 307.253 110.254 307.449 110.719C307.482 110.79 307.534 110.85 307.6 110.892C307.666 110.934 307.742 110.956 307.82 110.956C307.874 110.97 307.931 110.97 307.986 110.956C308.034 110.934 308.078 110.902 308.114 110.863C308.15 110.823 308.178 110.777 308.196 110.726C308.214 110.676 308.222 110.622 308.22 110.568C308.217 110.515 308.204 110.462 308.181 110.413C307.927 109.824 307.534 109.307 307.037 108.906C306.54 108.505 305.954 108.233 305.329 108.113C305.223 108.099 305.115 108.127 305.03 108.193C304.945 108.259 304.889 108.356 304.875 108.463C304.86 108.571 304.889 108.68 304.954 108.766C305.019 108.852 305.115 108.908 305.221 108.923V108.883Z" fill="#263238"/>
</svg>
